<?xml version="1.0" encoding="utf-8"?>
<!-- Generator: Adobe Illustrator 27.3.1, SVG Export Plug-In . SVG Version: 6.00 Build 0)  -->
<svg version="1.1" id="Layer_1" xmlns="http://www.w3.org/2000/svg" xmlns:xlink="http://www.w3.org/1999/xlink" x="0px" y="0px"
	 viewBox="0 0 17.1 17.6" style="enable-background:new 0 0 17.1 17.6;" xml:space="preserve">
<style type="text/css">
	.st0{fill:none;stroke:#000000;stroke-linejoin:round;stroke-miterlimit:10;}
	.st1{fill:none;stroke:#000000;stroke-linecap:round;stroke-linejoin:round;stroke-miterlimit:10;}
</style>
<g id="AuraIcon">
	<path class="st0" d="M8.8,9.5c2.2,0,3.9,1.8,3.9,3.9c0-2.2,1.8-3.9,3.9-3.9c-2.2,0-3.9-1.8-3.9-3.9C12.7,7.7,10.9,9.5,8.8,9.5z"/>
	<path class="st1" d="M4.3,14c1.7,0,3.1,1.4,3.1,3.1c0-1.7,1.4-3.1,3.1-3.1c-1.7,0-3.1-1.4-3.1-3.1C7.4,12.6,6,14,4.3,14z"/>
	<path class="st1" d="M0.5,5.2c2.6,0,4.7,2.1,4.7,4.7c0-2.6,2.1-4.7,4.7-4.7c-2.6,0-4.7-2.1-4.7-4.7C5.2,3.1,3.1,5.2,0.5,5.2z"/>
</g>
</svg>
