<?xml version="1.0" encoding="utf-8"?>
<!-- Generator: Adobe Illustrator 27.3.1, SVG Export Plug-In . SVG Version: 6.00 Build 0)  -->
<svg version="1.1" id="Layer_1" xmlns="http://www.w3.org/2000/svg" xmlns:xlink="http://www.w3.org/1999/xlink" x="0px" y="0px"
	 viewBox="0 0 17.1 9.5" style="enable-background:new 0 0 17.1 9.5;" xml:space="preserve">
<style type="text/css">
	.st0{fill:none;stroke:#231F20;stroke-linecap:round;stroke-linejoin:round;}
</style>
<g id="FieldIcon">
	<path class="st0" d="M16.5,1.6c0,0.3,0.1,0.5,0.1,0.8C16.6,6,13,9,8.5,9s-8-2.9-8-6.5c0-0.4,0.1-0.9,0.2-1.3"/>
	<path class="st0" d="M11.4,3.5c1.9,0.1,3.5,0.8,4.3,1.7"/>
	<path class="st0" d="M9.8,2.1C10.2,2.1,10.7,2,11.1,2c2.1,0,3.9,0.5,5.3,1.4"/>
	<path class="st0" d="M7.5,1c1.1-0.3,2.3-0.4,3.6-0.4c2,0,3.9,0.4,5.4,1"/>
	<path class="st0" d="M0.7,1.1C6-0.8,11.7,1.8,14,7.3"/>
	<path class="st0" d="M0.5,2.9c4.8-2.1,10.1,0.2,12.1,5.2"/>
	<path class="st0" d="M0.9,4.4c4.1-1.8,8.5,0,10.3,4.2"/>
	<path class="st0" d="M1.7,5.8c3.1-1.2,6.4,0.1,7.9,3.1"/>
</g>
</svg>
