<?xml version="1.0" encoding="utf-8"?>
<!-- Generator: Adobe Illustrator 27.3.1, SVG Export Plug-In . SVG Version: 6.00 Build 0)  -->
<svg version="1.1" id="Layer_1" xmlns="http://www.w3.org/2000/svg" xmlns:xlink="http://www.w3.org/1999/xlink" x="0px" y="0px"
	 viewBox="0 0 13.39 13.81" style="enable-background:new 0 0 13.39 13.81;" xml:space="preserve">
<style type="text/css">
	.st0{fill:none;stroke:#000000;stroke-width:0.5;stroke-linecap:round;stroke-miterlimit:10;}
</style>
<g id="AuraIcon">
	<g>
		<path class="st0" d="M7.85,4.05c-2.1,0-3.8-1.7-3.8-3.8"/>
		<path class="st0" d="M4.05,0.25c0,2.1-1.7,3.8-3.8,3.8"/>
		<path class="st0" d="M0.25,4.05c2.1,0,3.8,1.7,3.8,3.8"/>
		<path class="st0" d="M4.05,7.85c0-2.1,1.7-3.8,3.8-3.8"/>
	</g>
	<g>
		<path class="st0" d="M8.27,11.06c-1.38,0-2.51-1.12-2.51-2.51"/>
		<path class="st0" d="M5.76,8.55c0,1.38-1.12,2.51-2.51,2.51"/>
		<path class="st0" d="M3.26,11.06c1.38,0,2.51,1.12,2.51,2.51"/>
		<path class="st0" d="M5.76,13.56c0-1.38,1.12-2.51,2.51-2.51"/>
	</g>
	<g>
		<path class="st0" d="M13.14,7.44c-1.73,0-3.13-1.4-3.13-3.13"/>
		<path class="st0" d="M10.01,4.31c0,1.73-1.4,3.13-3.13,3.13"/>
		<path class="st0" d="M6.87,7.44c1.73,0,3.13,1.4,3.13,3.13"/>
		<path class="st0" d="M10.01,10.57c0-1.73,1.4-3.13,3.13-3.13"/>
	</g>
</g>
</svg>
