<?xml version="1.0" encoding="utf-8"?>
<!-- Generator: Adobe Illustrator 27.3.1, SVG Export Plug-In . SVG Version: 6.00 Build 0)  -->
<svg version="1.1" id="Layer_1" xmlns="http://www.w3.org/2000/svg" xmlns:xlink="http://www.w3.org/1999/xlink" x="0px" y="0px"
	 viewBox="0 0 15.6 13.6" style="enable-background:new 0 0 15.6 13.6;" xml:space="preserve">
<style type="text/css">
	.st0{fill:none;stroke:#231F20;stroke-width:0.75;stroke-linecap:round;stroke-linejoin:round;}
	.st1{fill:none;stroke:#231F20;stroke-width:0.75;stroke-linejoin:round;}
	.st2{fill:none;}
</style>
<g id="FieldIcon">
	<path class="st0" d="M15.2,5.8c0,0.3,0.1,0.5,0.1,0.8c0,3.6-3.3,6.6-7.5,6.6s-7.4-2.9-7.4-6.5c0-0.4,0.1-0.9,0.2-1.3"/>
	<path class="st1" d="M6.9,5.3C7.9,5,9,4.8,10.2,4.8c1.9,0,3.6,0.4,5,1"/>
	<path class="st1" d="M9,6.4c0.4-0.2,0.8-0.2,1.2-0.2c1.9,0,3.6,0.5,4.9,1.4"/>
	<path class="st1" d="M10.5,7.7c1.8,0.1,3.2,0.8,4,1.7"/>
	<path class="st1" d="M0.6,5.4C5.5,3.5,10.7,6,12.9,11.5"/>
	<path class="st1" d="M0.4,7.1C4.8,5,9.7,7.3,11.6,12.3"/>
	<path class="st1" d="M0.7,8.6c3.8-1.8,7.9,0,9.5,4.2"/>
	<path class="st1" d="M1.5,10c2.9-1.2,5.9,0.1,7.3,3.1"/>
</g>
<rect id="SkyPlaceholder" x="1" class="st2" width="13.6" height="1.9"/>
</svg>
