<?xml version="1.0" encoding="utf-8"?>
<!-- Generator: Adobe Illustrator 27.3.1, SVG Export Plug-In . SVG Version: 6.00 Build 0)  -->
<svg version="1.1" id="Layer_1" xmlns="http://www.w3.org/2000/svg" xmlns:xlink="http://www.w3.org/1999/xlink" x="0px" y="0px"
	 viewBox="0 0 14.93 8.3" style="enable-background:new 0 0 14.93 8.3;" xml:space="preserve">
<style type="text/css">
	.st0{fill:none;stroke:#231F20;stroke-width:0.5;stroke-linecap:round;stroke-miterlimit:10;}
</style>
<g id="FieldIcon">
	<path class="st0" d="M14.68,1.7C8.32,1.76,2.88,5.58,0.25,8.05"/>
	<path class="st0" d="M14.68,3.12C9.98,3.45,5.9,5.8,3.1,8.05"/>
	<path class="st0" d="M14.68,4.71C11.42,5.1,8.5,6.45,6.12,8.05"/>
	<path class="st0" d="M14.68,6.3c-1.8,0.33-3.48,0.95-5.01,1.74"/>
	<path class="st0" d="M0.34,0.25c3.28,0.03,6.32,1.07,8.86,2.4"/>
	<path class="st0" d="M0.34,1.68c2.42,0.17,4.68,0.87,6.69,1.83"/>
	<path class="st0" d="M0.34,3.26c1.67,0.2,3.25,0.65,4.71,1.26"/>
	<path class="st0" d="M0.34,4.86c1.01,0.18,1.97,0.46,2.89,0.8"/>
</g>
</svg>
