<?xml version="1.0" encoding="utf-8"?>
<!-- Generator: Adobe Illustrator 27.3.1, SVG Export Plug-In . SVG Version: 6.00 Build 0)  -->
<svg version="1.1" id="Layer_1" xmlns="http://www.w3.org/2000/svg" xmlns:xlink="http://www.w3.org/1999/xlink" x="0px" y="0px"
	 viewBox="0 0 85.04 85.04" style="enable-background:new 0 0 85.04 85.04;" xml:space="preserve">
<style type="text/css">
	.st0{fill:none;stroke:#000000;stroke-miterlimit:10;}
</style>
<g id="IconOrange">
	<path class="st0" d="M33.1,79.43c-4.63-3-14.25-10.23-14.74-20.3c-0.56-11.55,6.56-17.84,9.47-20.79
		c4.68-4.74,11.52-13.08,12.97-16.86c1.26-3.28,3.14-12.43,2.06-15.75c3.04,3.38,5.81,9.8,5.76,15.91
		c-0.05,5.54-2.05,12.3-10.64,20.5c-10.61,10.12-9.86,18.92-9.86,20.69C28.13,66.62,30.86,76.35,33.1,79.43z"/>
	<path class="st0" d="M41.46,78.34c-5.62-5.89-7.59-10.05-7.52-14.94c0.06-3.95,0.94-8.01,9.66-18.16c4.2-4.88,7.98-9.72,9.57-14.25
		c1.5-4.29,1.56-8.22,1.37-10.93c4.5,6.74,4.41,12.8,4.1,16.11c-1.27,13.57-15.63,15.99-17.67,30.94
		C40.1,73.56,41.01,75.84,41.46,78.34z"/>
	<path class="st0" d="M50.09,78.35c-1.59-1.71-3.54-5.27-3.51-8.69c0.02-3.46,2.5-7.54,4.88-10.84c2.54-3.51,8.3-7.88,9.86-11.32
		c2.34-5.2,1.8-10.79,1.95-14.06c1.42,2.33,3.48,6.37,3.12,13.37c-0.08,1.6,0.34,7.44-5.95,13.08c-3.55,3.18-8.2,7.32-9.37,12.01
		C50.4,74.56,50.11,76.8,50.09,78.35z"/>
</g>
</svg>
