<?xml version="1.0" encoding="utf-8"?>
<!-- Generator: Adobe Illustrator 27.3.1, SVG Export Plug-In . SVG Version: 6.00 Build 0)  -->
<svg version="1.1" id="Layer_1" xmlns="http://www.w3.org/2000/svg" xmlns:xlink="http://www.w3.org/1999/xlink" x="0px" y="0px"
	 viewBox="0 0 85.04 85.04" style="enable-background:new 0 0 85.04 85.04;" xml:space="preserve">
<style type="text/css">
	.st0{fill:none;stroke:#000000;stroke-miterlimit:10;}
</style>
<g id="IconCyan">
	<path class="st0" d="M54.17,42.83c0,10.76,11.57,20.53,18.86,22.68c-1.29-2.44-11.49-10.91-11.49-22.68
		c0-11.77,10.2-19.41,11.49-21.85C65.74,23.13,54.17,32.07,54.17,42.83z"/>
	<path class="st0" d="M30.53,42.83c0,10.76-11.57,20.53-18.86,22.68c1.29-2.44,11.49-10.91,11.49-22.68
		c0-11.77-10.2-19.41-11.49-21.85C18.96,23.13,30.53,32.07,30.53,42.83z"/>
	<path class="st0" d="M73.03,20.98c-7.29,2.15-18.86,11.09-18.86,21.85c0,10.76,11.57,20.53,18.86,22.68"/>
	<path class="st0" d="M37.49,73.73c5.18-5.14,7.57-9.1,8.86-14.15c1.05-4.09,1.6-8.43-1.15-20.37c-1.32-5.75-2.39-11.38-2.16-16.32
		c0.22-4.68,1.26-8.75,2.13-11.52c-4.7,6.2-6.3,12.47-7.01,15.94c-2.91,14.22,5.52,19.14,2.72,34.92
		C39.67,69.03,38.47,71.23,37.49,73.73z"/>
</g>
</svg>
