<?xml version="1.0" encoding="utf-8"?>
<!-- Generator: Adobe Illustrator 27.3.1, SVG Export Plug-In . SVG Version: 6.00 Build 0)  -->
<svg version="1.1" id="Layer_1" xmlns="http://www.w3.org/2000/svg" xmlns:xlink="http://www.w3.org/1999/xlink" x="0px" y="0px"
	 viewBox="0 0 85.04 85.04" style="enable-background:new 0 0 85.04 85.04;" xml:space="preserve">
<style type="text/css">
	.st0{fill:none;stroke:#000000;stroke-miterlimit:10;}
</style>
<g id="IconPurple">
	<path class="st0" d="M51.35,39.99c2.92-2.42,4.37-3.63,4.75-3.88c0.79-0.52,7.82-4.85,15.02-2.89c5.15,1.4,6.78,5.32,7.65,6.77
		c-0.21-2.28,0.17-6.53-3.33-9.78c-4.13-3.83-13.92-5.25-22.02-1.59c-2.73,1.24-6.67,4.61-14.53,11.36
		c-0.58,0.49-2.82,2.43-5.93,5.01c-2.92,2.42-4.37,3.63-4.75,3.88c-0.79,0.52-7.86,4.98-15.02,2.89c-0.93-0.27-2.23-0.66-3.59-1.68
		C6.71,47.93,5.54,45,5.54,45s-0.23,2.43,0.43,4.52c0,0,0.96,3.06,2.9,5.25c3.74,4.21,13.92,5.25,22.02,1.59
		c2.73-1.24,6.67-4.61,14.53-11.36C46,44.51,48.24,42.57,51.35,39.99z"/>
	<path class="st0" d="M28.65,32.79c-6.64-2.12-10.94-1.44-15.46-0.19c-1.94,0.54-3.32,1.48-3.59,1.68
		c-2.88,2.16-4.06,5.09-4.06,5.09s-0.23-2.43,0.43-4.52c0,0,0.96-3.06,2.9-5.25c3.33-3.76,13.91-6.72,22.02-1.59
		c4.97,3.14,6.76,9.29,6.76,9.29S31.05,33.55,28.65,32.79z"/>
	<path class="st0" d="M56.05,52.32c6.64,2.12,10.94,1.44,15.46,0.19c1.94-0.54,3.32-1.48,3.59-1.68c2.88-2.16,4.06-5.09,4.06-5.09
		s0.23,2.43-0.43,4.52c0,0-0.96,3.06-2.9,5.25c-3.33,3.76-13.91,6.72-22.02,1.59c-4.97-3.14-6.76-9.29-6.76-9.29
		S53.65,51.55,56.05,52.32z"/>
</g>
</svg>
