<?xml version="1.0" encoding="utf-8"?>
<!-- Generator: Adobe Illustrator 27.3.1, SVG Export Plug-In . SVG Version: 6.00 Build 0)  -->
<svg version="1.1" id="Layer_1" xmlns="http://www.w3.org/2000/svg" xmlns:xlink="http://www.w3.org/1999/xlink" x="0px" y="0px"
	 viewBox="0 0 85.04 85.04" style="enable-background:new 0 0 85.04 85.04;" xml:space="preserve">
<style type="text/css">
	.st0{fill:none;stroke:#000000;stroke-miterlimit:10;}
</style>
<g id="IconYellow">
	<path class="st0" d="M31.81,52.89c-3.33-5.17-4.3-8.66-3.8-12.57c0.4-3.16,3.51-10.09,11.23-16.93c7.3-6.47,8.12-17.53,8.12-17.53
		s4.91,9.72-1.37,16.86c-3.57,4.06-10.69,9.3-13.48,21.12C31.31,48.95,31.73,50.85,31.81,52.89z"/>
	<path class="st0" d="M38.13,42.47c-4.07,3.82-3.12,12.05-3.12,12.05s1.83-3.52,6.31-7.17c1.33-1.08,3.83-3.44,5.09-4.6
		c4.1-3.79,3.39-12.14,3.39-12.14s-2.1,3.6-6.58,7.25C41.89,38.95,39.38,41.3,38.13,42.47z"/>
	<path class="st0" d="M53.31,32.55c3.33,5.17,4.3,8.66,3.8,12.57c-0.4,3.16-3.51,10.09-11.23,16.93c-7.3,6.47-8.12,17.53-8.12,17.53
		s-4.91-9.72,1.37-16.86c3.57-4.06,10.69-9.3,13.48-21.12C53.81,36.49,53.39,34.59,53.31,32.55z"/>
</g>
</svg>
