<?xml version="1.0" encoding="utf-8"?>
<!-- Generator: Adobe Illustrator 27.3.1, SVG Export Plug-In . SVG Version: 6.00 Build 0)  -->
<svg version="1.1" id="Layer_1" xmlns="http://www.w3.org/2000/svg" xmlns:xlink="http://www.w3.org/1999/xlink" x="0px" y="0px"
	 viewBox="0 0 85.04 85.04" style="enable-background:new 0 0 85.04 85.04;" xml:space="preserve">
<style type="text/css">
	.st0{fill:none;stroke:#000000;stroke-miterlimit:10;}
</style>
<g id="IconBlue">
	<path class="st0" d="M42.59,22.83c9.67,5.39,15.92,3.04,17.2,2.65c2.74-0.84,9.17-4.93,10.9-7.23c-1.16,4-4.28,12.54-11.45,15.1
		c-8.22,2.93-14.41-0.87-17.18-2.33l0,0c-9.64-5.45-15.88-2.99-17.16-2.6c-2.74,0.84-9.17,4.93-10.9,7.23
		c1.16-4,4.28-12.54,11.45-15.1C33.68,17.62,39.83,21.35,42.59,22.83C42.63,22.86,42.54,22.81,42.59,22.83z"/>
	<path class="st0" d="M42.59,54.04c9.67,5.39,15.92,3.04,17.2,2.65c2.74-0.84,9.17-4.93,10.9-7.23c-1.16,4-4.28,12.54-11.45,15.1
		c-8.22,2.93-14.41-0.87-17.18-2.33l0,0c-9.64-5.45-15.88-2.99-17.16-2.6c-2.74,0.84-9.17,4.93-10.9,7.23
		c1.16-4,4.28-12.54,11.45-15.1C33.68,48.83,39.83,52.55,42.59,54.04C42.63,54.06,42.54,54.01,42.59,54.04z"/>
	<path class="st0" d="M42.59,38.44c9.67,5.39,15.92,3.04,17.2,2.65c2.74-0.84,9.17-4.93,10.9-7.23c-1.16,4-4.28,12.54-11.45,15.1
		c-8.22,2.93-14.41-0.87-17.18-2.33l0,0c-9.64-5.45-15.88-2.99-17.16-2.6c-2.74,0.84-9.17,4.93-10.9,7.23
		c1.16-4,4.28-12.54,11.45-15.1C33.68,33.22,39.83,36.95,42.59,38.44C42.63,38.46,42.55,38.41,42.59,38.44z"/>
</g>
</svg>
