<?xml version="1.0" encoding="utf-8"?>
<!-- Generator: Adobe Illustrator 27.3.1, SVG Export Plug-In . SVG Version: 6.00 Build 0)  -->
<svg version="1.1" id="Layer_1" xmlns="http://www.w3.org/2000/svg" xmlns:xlink="http://www.w3.org/1999/xlink" x="0px" y="0px"
	 viewBox="0 0 85.04 85.04" style="enable-background:new 0 0 85.04 85.04;" xml:space="preserve">
<style type="text/css">
	.st0{fill:none;stroke:#000000;stroke-miterlimit:10;}
</style>
<g id="IconBlack">
	<path class="st0" d="M45.95,30.26c0.38-3.22,3.29-5.72,6.78-5.82c3.47-0.1,6.53,2.19,7.15,5.37c-0.56-0.47-3.02-2.44-6.77-2.41
		C48.98,27.42,46.41,29.82,45.95,30.26z"/>
	<path class="st0" d="M69.59,61.66c-0.58,0.92-9.18,14.16-26.39,14.9c-1.04,0.04-17.75,0.5-27.6-12.37
		c-7.06-9.22-7.75-21.58-1.82-31.77c-0.31,2.11-1.79,13.83,6.98,23.62c8.2,9.15,19.68,10.27,23.96,10.68
		C56.98,67.91,66.27,63.45,69.59,61.66z"/>
	<path class="st0" d="M32.46,8.54c0,0-14.27,13.16-10.62,28.96c2.37,10.24,11.48,20.89,25.18,22.77
		c16.16,2.22,27.19-9.35,27.91-10.12c-2.86,0.83-13.34,3.51-24.87-1.12c-1.54-0.62-14.57-6.07-18.81-18.28
		C27.21,19.12,32.46,8.54,32.46,8.54z"/>
</g>
</svg>
