<?xml version="1.0" encoding="utf-8"?>
<!-- Generator: Adobe Illustrator 27.3.1, SVG Export Plug-In . SVG Version: 6.00 Build 0)  -->
<svg version="1.1" id="Layer_1" xmlns="http://www.w3.org/2000/svg" xmlns:xlink="http://www.w3.org/1999/xlink" x="0px" y="0px"
	 viewBox="0 0 85.04 85.04" style="enable-background:new 0 0 85.04 85.04;" xml:space="preserve">
<style type="text/css">
	.st0{fill:none;stroke:#000000;stroke-miterlimit:10;}
</style>
<g id="IconPink">
	<path class="st0" d="M9.18,54.75c1.08-4.33,3.89-13.09,11.33-20.19c1.92-1.83,12.46-11.36,24.89-9.11
		c3.81,0.69,3.75,1.77,11.58,5.11c9.3,3.96,14.23,1.4,20.23,0.38c-2.36,3.84-6.11,8.5-11.33,9.36c-5.41,0.88-4.83-0.84-13-4.81
		c-2.65-1.28-9.11-3.5-17.69-2.89C22.67,33.48,13.57,46.9,9.18,54.75z"/>
	<path class="st0" d="M13.41,56.72c3.02-3.97,7.74-8.78,13.78-9.11c6.34-0.34,9.29,4.52,15.89,5.05c4.1,0.33,10.12-0.98,17.89-8.99
		c-4.4,10.65-9.22,13.79-12.67,14.77c-6.55,1.86-11.16-3.2-22.45-3.45C20.45,54.88,16.07,55.92,13.41,56.72z"/>
	<path class="st0" d="M31.41,35.55c-1.83,1.66-1.34,5.76,0,8.12c2.24,3.94,8.11,5.3,12.45,2.95c4.68-2.54,5.67-8.39,5.78-9.11
		c-0.77,1.09-3.15,4.14-7.11,4.92c-0.95,0.19-5.99,1.18-8-2.22c-1.21-2.05-0.66-4.59-0.44-5.42C33.24,34.73,32.2,34.83,31.41,35.55z
		"/>
</g>
</svg>
