<?xml version="1.0" encoding="utf-8"?>
<!-- Generator: Adobe Illustrator 27.3.1, SVG Export Plug-In . SVG Version: 6.00 Build 0)  -->
<svg version="1.1" id="Layer_1" xmlns="http://www.w3.org/2000/svg" xmlns:xlink="http://www.w3.org/1999/xlink" x="0px" y="0px"
	 viewBox="0 0 72.5 75.5" style="enable-background:new 0 0 72.5 75.5;" xml:space="preserve">
<style type="text/css">
	.st0{fill:none;stroke:#000000;stroke-width:4;stroke-miterlimit:10;}
</style>
<g id="Icon">
	<path class="st0" d="M2.6,44.3c2.5,3.8,7.8,10.7,16.9,16.1s17.6,6.8,22.2,7.2c-7.8,6.8-19.1,7.8-28,2.5C4.8,64.8,0.3,54.4,2.6,44.3
		z"/>
	<path class="st0" d="M54.3,15.3c1.9,4.2,5,12.2,4.9,22.8c-0.2,10.6-3.5,18.6-5.5,22.7c9.9-3.1,16.7-12.2,16.8-22.5
		S64.1,18.7,54.3,15.3z"/>
	<path class="st0" d="M42.4,8.3C37.9,8.6,29.3,9.7,20,14.9C10.8,20.1,5.4,26.8,2.7,30.5C0.7,20.4,5.5,10.1,14.5,5
		C23.5,0,34.9,1.3,42.4,8.3z"/>
</g>
</svg>
