<?xml version="1.0" encoding="utf-8"?>
<!-- Generator: Adobe Illustrator 27.3.1, SVG Export Plug-In . SVG Version: 6.00 Build 0)  -->
<svg version="1.1" id="Layer_1" xmlns="http://www.w3.org/2000/svg" xmlns:xlink="http://www.w3.org/1999/xlink" x="0px" y="0px"
	 viewBox="0 0 85.04 85.04" style="enable-background:new 0 0 85.04 85.04;" xml:space="preserve">
<style type="text/css">
	.st0{fill:none;stroke:#000000;stroke-miterlimit:10;}
</style>
<g id="IconGreen">
	<path class="st0" d="M42.18,5.7c0.9,4.66,1.92,11.36,5.81,18.86c4.65,8.94,10.24,12.82,12.89,14.45
		c-1.51,0.44-7.51,1.85-13.08-5.17c-3.13-3.94-4.81-8.85-5.62-11.72l0,0c-0.81,2.87-2.49,7.88-5.62,11.83
		c-5.57,7.03-11.57,5.61-13.08,5.17c2.65-1.63,8.24-5.51,12.89-14.45C40.27,17.16,41.28,10.36,42.18,5.7L42.18,5.7z"/>
	<path class="st0" d="M42.35,30.02c1.32,3.3,2.8,8.05,8.49,13.37c6.78,6.33,14.95,9.08,18.83,10.24
		c-2.21,0.31-10.98,1.31-19.11-3.67c-4.57-2.8-7.02-6.27-8.21-8.31l0,0c-1.19,2.04-3.64,5.58-8.21,8.38
		c-8.13,4.98-16.9,3.98-19.11,3.67c3.87-1.16,12.04-3.91,18.83-10.24C39.55,38.14,41.03,33.33,42.35,30.02L42.35,30.02z"/>
	<path class="st0" d="M42.51,79.4c3.51-2.15,5.01-3.93,5.61-6.32c0.48-1.94,0.58-4.03-2.37-10.12c-1.42-2.93-2.64-5.79-2.83-8.2
		c-0.18-2.29,0.3-4.22,0.75-5.52c-3.07,2.71-3.81,5.68-4.09,7.34c-1.14,6.79,5.56,9.84,4.62,17.41
		C43.8,77.24,43.06,78.24,42.51,79.4z"/>
</g>
</svg>
