<?xml version="1.0" encoding="utf-8"?>
<!-- Generator: Adobe Illustrator 27.3.1, SVG Export Plug-In . SVG Version: 6.00 Build 0)  -->
<svg version="1.1" id="Layer_1" xmlns="http://www.w3.org/2000/svg" xmlns:xlink="http://www.w3.org/1999/xlink" x="0px" y="0px"
	 viewBox="0 0 85.04 85.04" style="enable-background:new 0 0 85.04 85.04;" xml:space="preserve">
<style type="text/css">
	.st0{fill:none;stroke:#000000;stroke-miterlimit:10;}
</style>
<g id="IconBrown">
	<path class="st0" d="M12.19,47.39c2.52,3.82,7.78,10.7,16.88,16.12c9.1,5.42,17.65,6.77,22.21,7.17
		c-7.78,6.79-19.12,7.81-27.99,2.53C14.41,67.92,9.92,57.46,12.19,47.39z"/>
	<path class="st0" d="M60.91,20.15c1.93,4.15,5.04,12.23,4.89,22.82c-0.15,10.59-3.47,18.58-5.52,22.68
		c9.86-3.07,16.67-12.19,16.81-22.52C77.23,32.8,70.68,23.49,60.91,20.15z"/>
	<path class="st0" d="M52.05,14.87c-4.57,0.27-13.15,1.39-22.4,6.55c-9.24,5.17-14.69,11.9-17.32,15.65
		c-1.99-10.13,2.79-20.46,11.81-25.5C33.15,6.53,44.46,7.87,52.05,14.87z"/>
</g>
</svg>
