<?xml version="1.0" encoding="utf-8"?>
<!-- Generator: Adobe Illustrator 27.3.1, SVG Export Plug-In . SVG Version: 6.00 Build 0)  -->
<svg version="1.1" id="Layer_1" xmlns="http://www.w3.org/2000/svg" xmlns:xlink="http://www.w3.org/1999/xlink" x="0px" y="0px"
	 viewBox="0 0 12.76 12.76" style="enable-background:new 0 0 12.76 12.76;" xml:space="preserve">
<style type="text/css">
	.st0{fill-rule:evenodd;clip-rule:evenodd;}
</style>
<g>
	<path class="st0" d="M3.48,6.84L3.43,6.79c-0.27-0.27-0.71-0.27-0.97,0C2.21,7.03,1.86,7.38,1.62,7.62c-0.27,0.27-0.27,0.71,0,0.97
		L1.9,8.88l-1.69,1.23C0.08,10.21,0,10.37,0,10.54c0,0.16,0.07,0.31,0.19,0.43l1.59,1.59c0.12,0.12,0.28,0.18,0.43,0.19
		c0.18,0,0.33-0.08,0.43-0.21l1.23-1.69l0.28,0.28c0.27,0.27,0.71,0.27,0.97,0l0.83-0.83c0.27-0.27,0.27-0.71,0-0.97L5.9,9.26
		l5.75-3.6c0.11-0.07,0.19-0.19,0.22-0.32c0.11-0.59,0.69-3.77,0.88-4.78c0.03-0.15-0.02-0.31-0.13-0.42
		c-0.11-0.11-0.27-0.16-0.42-0.13C11.18,0.19,8,0.78,7.41,0.89C7.28,0.91,7.17,0.99,7.1,1.1L3.48,6.84z M2.27,9.25l-1.76,1.28
		c0,0,0,0.01,0,0.01c0,0.03,0.02,0.05,0.04,0.07l1.59,1.59c0.02,0.02,0.05,0.03,0.07,0.03c0,0,0.01,0,0.01,0l1.28-1.76L2.27,9.25z
		 M3.34,7.43L3.34,7.43L5.3,9.4l0,0l0,0L5.6,9.7c0.07,0.07,0.07,0.17,0,0.24l-0.83,0.83c-0.07,0.07-0.17,0.07-0.24,0l-0.5-0.5l0,0
		l0,0L2.48,8.73l0,0l-0.5-0.5c-0.07-0.07-0.07-0.17,0-0.24l0.83-0.83c0.07-0.07,0.17-0.07,0.24,0L3.34,7.43z M5.53,8.89l5.84-3.66
		l0.87-4.7l-4.7,0.87L3.85,7.22L5.53,8.89z"/>
</g>
</svg>
