<?xml version="1.0" encoding="utf-8"?>
<!-- Generator: Adobe Illustrator 27.3.1, SVG Export Plug-In . SVG Version: 6.00 Build 0)  -->
<svg version="1.1" id="Layer_1" xmlns="http://www.w3.org/2000/svg" xmlns:xlink="http://www.w3.org/1999/xlink" x="0px" y="0px"
	 viewBox="0 0 15.6 13.6" style="enable-background:new 0 0 15.6 13.6;" xml:space="preserve">
<style type="text/css">
	.st0{fill:#231F20;}
	.st1{fill:none;}
</style>
<g id="FieldIcon">
	<g>
		<path class="st0" d="M7.8,13.6c-4.4,0-7.8-3-7.8-6.9c0-0.4,0.1-0.8,0.2-1.4c0-0.2,0.2-0.3,0.5-0.3c0.2,0,0.3,0.2,0.3,0.5
			C0.8,6,0.8,6.4,0.8,6.7c0,3.4,3.1,6.1,7,6.1c3.9,0,7.1-2.8,7.1-6.2c0-0.1,0-0.2,0-0.3c0-0.1-0.1-0.3-0.1-0.5
			c0-0.2,0.2-0.4,0.4-0.4s0.4,0.2,0.4,0.4c0,0.1,0,0.2,0,0.3c0,0.1,0.1,0.3,0.1,0.5C15.6,10.5,12.1,13.6,7.8,13.6z"/>
	</g>
	<g>
		<path class="st0" d="M15,6.2c-1.4-0.6-3.2-1-4.8-1C9.1,5.2,8.1,5.4,7,5.7L6.7,5C7.9,4.6,9,4.5,10.2,4.5c1.8,0,3.6,0.4,5.1,1
			L15,6.2z"/>
	</g>
	<g>
		<path class="st0" d="M14.9,7.9c-1.3-0.9-2.9-1.3-4.7-1.3c-0.3,0-0.7,0-1,0.2L8.8,6.1c0.5-0.2,1-0.2,1.4-0.2c2,0,3.7,0.5,5.1,1.5
			L14.9,7.9z"/>
	</g>
	<g>
		<path class="st0" d="M14.2,9.7c-0.7-0.9-2.1-1.5-3.7-1.6l0-0.7c1.8,0.1,3.4,0.8,4.2,1.8L14.2,9.7z"/>
	</g>
	<g>
		<path class="st0" d="M12.5,11.7c-1-2.6-2.7-4.6-4.9-5.6C5.4,5,3,4.9,0.7,5.8L0.4,5.1c2.5-1,5.1-0.9,7.5,0.3c2.4,1.2,4.2,3.3,5.3,6
			L12.5,11.7z"/>
	</g>
	<g>
		<path class="st0" d="M11.2,12.5C10.3,10,8.6,8.1,6.5,7.3c-1.9-0.8-4-0.7-5.9,0.2L0.2,6.8c2.1-1,4.4-1.1,6.5-0.2
			c2.4,1,4.2,3,5.2,5.6L11.2,12.5z"/>
	</g>
	<g>
		<path class="st0" d="M9.9,13c-0.8-2-2.2-3.5-4-4.2C4.3,8.1,2.6,8.2,0.9,9L0.6,8.3c1.8-0.9,3.8-1,5.6-0.3c2,0.8,3.5,2.4,4.4,4.7
			L9.9,13z"/>
	</g>
	<g>
		<path class="st0" d="M8.5,13.3c-1.3-2.8-4.2-4-6.8-2.9L1.3,9.7c3-1.3,6.3,0.1,7.8,3.3L8.5,13.3z"/>
	</g>
</g>
<g id="SkyPlaceholder">
	<rect x="1" class="st1" width="13.6" height="1.9"/>
</g>
</svg>
