<?xml version="1.0" encoding="utf-8"?>
<!-- Generator: Adobe Illustrator 27.3.1, SVG Export Plug-In . SVG Version: 6.00 Build 0)  -->
<svg version="1.1" id="Layer_1" xmlns="http://www.w3.org/2000/svg" xmlns:xlink="http://www.w3.org/1999/xlink" x="0px" y="0px"
	 viewBox="0 0 17.1 17.6" style="enable-background:new 0 0 17.1 17.6;" xml:space="preserve">
<g id="AuraIcon">
	<g>
		<path d="M12.7,13.9c-0.3,0-0.5-0.2-0.5-0.5c0-1.9-1.5-3.4-3.4-3.4c-0.3,0-0.5-0.2-0.5-0.5S8.5,9,8.8,9c1.9,0,3.4-1.5,3.4-3.4
			c0-0.3,0.2-0.5,0.5-0.5s0.5,0.2,0.5,0.5c0,1.9,1.5,3.4,3.4,3.4c0.3,0,0.5,0.2,0.5,0.5S16.9,10,16.6,10c-1.9,0-3.4,1.5-3.4,3.4
			C13.2,13.7,13,13.9,12.7,13.9z M10.8,9.5c0.8,0.4,1.5,1.1,1.9,1.9c0.4-0.8,1.1-1.5,1.9-1.9c-0.8-0.4-1.5-1.1-1.9-1.9
			C12.3,8.4,11.6,9.1,10.8,9.5z"/>
	</g>
	<g>
		<path d="M7.4,17.6c-0.3,0-0.5-0.2-0.5-0.5c0-1.5-1.2-2.6-2.6-2.6c-0.3,0-0.5-0.2-0.5-0.5s0.2-0.5,0.5-0.5c1.4,0,2.6-1.2,2.6-2.6
			c0-0.3,0.2-0.5,0.5-0.5s0.5,0.2,0.5,0.5c0,1.5,1.2,2.6,2.6,2.6c0.3,0,0.5,0.2,0.5,0.5s-0.2,0.5-0.5,0.5c-1.4,0-2.6,1.2-2.6,2.6
			C7.9,17.4,7.7,17.6,7.4,17.6z M6.1,14c0.5,0.3,1,0.8,1.3,1.3c0.3-0.5,0.8-1,1.3-1.3c-0.5-0.3-1-0.8-1.3-1.3
			C7.1,13.2,6.6,13.7,6.1,14z"/>
	</g>
	<g>
		<path d="M5.2,10.5c-0.3,0-0.5-0.2-0.5-0.5c0-2.3-1.9-4.2-4.2-4.2C0.2,5.7,0,5.5,0,5.2s0.2-0.5,0.5-0.5c2.3,0,4.2-1.9,4.2-4.2
			C4.7,0.2,5,0,5.2,0s0.5,0.2,0.5,0.5c0,2.3,1.9,4.2,4.2,4.2c0.3,0,0.5,0.2,0.5,0.5S10.3,5.7,10,5.7c-2.3,0-4.2,1.9-4.2,4.2
			C5.7,10.3,5.5,10.5,5.2,10.5z M2.7,5.2c1.1,0.5,2,1.4,2.5,2.5c0.5-1.1,1.4-2,2.5-2.5c-1.1-0.5-2-1.4-2.5-2.5
			C4.7,3.8,3.8,4.7,2.7,5.2z"/>
	</g>
</g>
</svg>
