<?xml version="1.0" encoding="utf-8"?>
<!-- Generator: Adobe Illustrator 27.3.1, SVG Export Plug-In . SVG Version: 6.00 Build 0)  -->
<svg version="1.1" id="Layer_1" xmlns="http://www.w3.org/2000/svg" xmlns:xlink="http://www.w3.org/1999/xlink" x="0px" y="0px"
	 viewBox="0 0 13.1 13.1" style="enable-background:new 0 0 13.1 13.1;" xml:space="preserve">
<g id="ActionIcon">
	<g>
		<path d="M6.5,11.7c-2.9,0-5.2-2.3-5.2-5.2c0-2.9,2.3-5.2,5.2-5.2s5.2,2.3,5.2,5.2C11.7,9.4,9.4,11.7,6.5,11.7z M6.5,1.9
			C4,1.9,1.9,4,1.9,6.5s2.1,4.7,4.7,4.7s4.7-2.1,4.7-4.7S9.1,1.9,6.5,1.9z"/>
	</g>
	<g>
		<path d="M6.5,8.8c-1.3,0-2.3-1-2.3-2.3c0-1.3,1-2.3,2.3-2.3s2.3,1,2.3,2.3C8.8,7.8,7.8,8.8,6.5,8.8z M6.5,4.7
			c-1,0-1.8,0.8-1.8,1.8c0,1,0.8,1.8,1.8,1.8s1.8-0.8,1.8-1.8C8.3,5.5,7.5,4.7,6.5,4.7z"/>
	</g>
	<g>
		<path d="M6.5,3.2C6.4,3.2,6.3,3.1,6.3,3V0.3C6.3,0.1,6.4,0,6.5,0s0.2,0.1,0.2,0.2V3C6.8,3.1,6.7,3.2,6.5,3.2z"/>
	</g>
	<g>
		<path d="M12.8,6.8h-2.7c-0.1,0-0.2-0.1-0.2-0.2s0.1-0.2,0.2-0.2h2.7c0.1,0,0.2,0.1,0.2,0.2S13,6.8,12.8,6.8z"/>
	</g>
	<g>
		<path d="M3,6.8H0.2C0.1,6.8,0,6.7,0,6.5s0.1-0.2,0.2-0.2H3c0.1,0,0.2,0.1,0.2,0.2S3.1,6.8,3,6.8z"/>
	</g>
	<g>
		<path d="M6.5,13.1c-0.1,0-0.2-0.1-0.2-0.2v-2.7c0-0.1,0.1-0.2,0.2-0.2s0.2,0.1,0.2,0.2v2.7C6.8,13,6.7,13.1,6.5,13.1z"/>
	</g>
</g>
</svg>
