<?xml version="1.0" encoding="utf-8"?>
<!-- Generator: Adobe Illustrator 27.3.1, SVG Export Plug-In . SVG Version: 6.00 Build 0)  -->
<svg version="1.1" id="Layer_1" xmlns="http://www.w3.org/2000/svg" xmlns:xlink="http://www.w3.org/1999/xlink" x="0px" y="0px"
	 viewBox="0 0 17.1 9.5" style="enable-background:new 0 0 17.1 9.5;" xml:space="preserve">
<style type="text/css">
	.st0{fill:#231F20;}
</style>
<g id="FieldIcon">
	<g>
		<path class="st0" d="M8.5,9.5C3.8,9.5,0,6.3,0,2.4C0,1.9,0.1,1.5,0.2,1c0.1-0.3,0.3-0.4,0.6-0.4C1,0.7,1.2,1,1.1,1.3
			C1,1.6,1,2,1,2.4c0,3.3,3.4,6,7.5,6c4.2,0,7.5-2.7,7.5-6c0-0.2,0-0.5,0-0.7c0-0.3,0.2-0.5,0.4-0.6c0.3,0,0.5,0.1,0.6,0.4
			c0,0.3,0.1,0.6,0.1,0.8C17.1,6.3,13.3,9.5,8.5,9.5z"/>
	</g>
	<g>
		<path class="st0" d="M15.8,5.7c-0.1,0-0.3-0.1-0.4-0.2C14.6,4.6,13.1,4,11.4,4c-0.3,0-0.5-0.2-0.5-0.5C11,3.2,11.2,3,11.5,3
			c2,0.1,3.7,0.8,4.7,1.9c0.2,0.2,0.2,0.5-0.1,0.7C16,5.7,15.9,5.7,15.8,5.7z"/>
	</g>
	<g>
		<path class="st0" d="M16.4,3.9c-0.1,0-0.2,0-0.3-0.1c-1.6-1-4-1.5-6.4-1.2c-0.3,0-0.5-0.2-0.6-0.4c0-0.3,0.2-0.5,0.4-0.6
			c2.5-0.3,5.2,0.2,7,1.4c0.2,0.1,0.3,0.5,0.2,0.7C16.8,3.9,16.6,3.9,16.4,3.9z"/>
	</g>
	<g>
		<path class="st0" d="M16.5,2.1c-0.1,0-0.1,0-0.2,0C13.8,1,10.5,0.8,7.7,1.5C7.4,1.6,7.1,1.4,7.1,1.2s0.1-0.5,0.4-0.6
			c3-0.8,6.6-0.5,9.3,0.6C17,1.3,17.1,1.6,17,1.8C16.9,2,16.7,2.1,16.5,2.1z"/>
	</g>
	<g>
		<path class="st0" d="M14,7.8c-0.2,0-0.4-0.1-0.5-0.3C11.4,2.3,6-0.2,0.8,1.6c-0.3,0.1-0.5,0-0.6-0.3C0.1,1,0.2,0.8,0.5,0.7
			c5.6-2,11.6,0.7,13.9,6.4c0.1,0.3,0,0.5-0.3,0.7C14.1,7.7,14,7.8,14,7.8z"/>
	</g>
	<g>
		<path class="st0" d="M12.6,8.6c-0.2,0-0.4-0.1-0.5-0.3c-0.9-2.3-2.6-4.1-4.8-5C5.3,2.4,2.9,2.4,0.7,3.3c-0.3,0.1-0.5,0-0.7-0.3
			C0,2.8,0.1,2.5,0.3,2.4c2.4-1,5.1-1.1,7.4-0.1c2.4,1,4.3,3,5.3,5.5c0.1,0.3,0,0.5-0.3,0.6C12.7,8.6,12.7,8.6,12.6,8.6z"/>
	</g>
	<g>
		<path class="st0" d="M11.2,9.1c-0.2,0-0.4-0.1-0.5-0.3c-0.8-1.9-2.2-3.3-4-4.1C4.9,4,2.9,4.1,1.1,4.9C0.8,5,0.5,4.9,0.4,4.6
			C0.3,4.4,0.4,4.1,0.7,4C2.8,3.1,5,3,7,3.8c2.1,0.8,3.7,2.5,4.6,4.6c0.1,0.3,0,0.5-0.3,0.7C11.3,9.1,11.2,9.1,11.2,9.1z"/>
	</g>
	<g>
		<path class="st0" d="M9.6,9.4c-0.2,0-0.4-0.1-0.4-0.3C7.7,6.4,4.7,5.2,1.9,6.3C1.6,6.4,1.3,6.3,1.2,6c-0.1-0.3,0-0.5,0.3-0.6
			C4.8,4.1,8.4,5.5,10,8.7c0.1,0.2,0,0.5-0.2,0.7C9.7,9.4,9.7,9.4,9.6,9.4z"/>
	</g>
</g>
</svg>
