<?xml version="1.0" encoding="utf-8"?>
<!-- Generator: Adobe Illustrator 27.3.1, SVG Export Plug-In . SVG Version: 6.00 Build 0)  -->
<svg version="1.1" id="Layer_1" xmlns="http://www.w3.org/2000/svg" xmlns:xlink="http://www.w3.org/1999/xlink" x="0px" y="0px"
	 viewBox="0 0 17.1 17.1" style="enable-background:new 0 0 17.1 17.1;" xml:space="preserve">
<g id="ActionIcon">
	<g>
		<path d="M8.5,15.3c-3.7,0-6.8-3.1-6.8-6.8c0-3.7,3.1-6.8,6.8-6.8c3.7,0,6.8,3.1,6.8,6.8C15.3,12.3,12.3,15.3,8.5,15.3z M8.5,2.7
			c-3.2,0-5.8,2.6-5.8,5.8s2.6,5.8,5.8,5.8s5.8-2.6,5.8-5.8S11.7,2.7,8.5,2.7z"/>
	</g>
	<g>
		<path d="M8.5,11.7c-1.7,0-3.1-1.4-3.1-3.1c0-1.7,1.4-3.1,3.1-3.1c1.7,0,3.1,1.4,3.1,3.1C11.7,10.3,10.3,11.7,8.5,11.7z M8.5,6.4
			c-1.2,0-2.1,1-2.1,2.1s1,2.1,2.1,2.1s2.1-1,2.1-2.1S9.7,6.4,8.5,6.4z"/>
	</g>
	<g>
		<path d="M8.5,4.5C8.3,4.5,8,4.3,8,4V0.5C8,0.2,8.3,0,8.5,0S9,0.2,9,0.5V4C9,4.3,8.8,4.5,8.5,4.5z"/>
	</g>
	<g>
		<path d="M16.6,9h-3.5c-0.3,0-0.5-0.2-0.5-0.5S12.8,8,13.1,8h3.5c0.3,0,0.5,0.2,0.5,0.5S16.9,9,16.6,9z"/>
	</g>
	<g>
		<path d="M4,9H0.5C0.2,9,0,8.8,0,8.5S0.2,8,0.5,8H4c0.3,0,0.5,0.2,0.5,0.5S4.3,9,4,9z"/>
	</g>
	<g>
		<path d="M8.5,17.1c-0.3,0-0.5-0.2-0.5-0.5v-3.5c0-0.3,0.2-0.5,0.5-0.5S9,12.8,9,13.1v3.5C9,16.9,8.8,17.1,8.5,17.1z"/>
	</g>
</g>
</svg>
