<?xml version="1.0" encoding="utf-8"?>
<!-- Generator: Adobe Illustrator 27.3.1, SVG Export Plug-In . SVG Version: 6.00 Build 0)  -->
<svg version="1.1" id="Layer_1" xmlns="http://www.w3.org/2000/svg" xmlns:xlink="http://www.w3.org/1999/xlink" x="0px" y="0px"
	 viewBox="0 0 13.9 14.4" style="enable-background:new 0 0 13.9 14.4;" xml:space="preserve">
<style type="text/css">
	.st0{fill:#231F20;}
</style>
<g id="CreatureIcon">
	<g>
		<path class="st0" d="M2.1,6.1C0.9,6.1,0,5.1,0,4s0.9-2.1,2.1-2.1S4.2,2.8,4.2,4S3.3,6.1,2.1,6.1z M2.1,2.4C1.2,2.4,0.5,3.1,0.5,4
			s0.7,1.6,1.6,1.6C3,5.6,3.7,4.9,3.7,4S3,2.4,2.1,2.4z"/>
	</g>
	<g>
		<path class="st0" d="M7,4.2c-1.2,0-2.1-0.9-2.1-2.1S5.8,0,7,0c1.2,0,2.1,0.9,2.1,2.1S8.1,4.2,7,4.2z M7,0.5
			c-0.9,0-1.6,0.7-1.6,1.6S6.1,3.7,7,3.7c0.9,0,1.6-0.7,1.6-1.6S7.8,0.5,7,0.5z"/>
	</g>
	<g>
		<path class="st0" d="M11.8,6.1c-1.2,0-2.1-0.9-2.1-2.1s0.9-2.1,2.1-2.1s2.1,0.9,2.1,2.1S13,6.1,11.8,6.1z M11.8,2.4
			c-0.9,0-1.6,0.7-1.6,1.6s0.7,1.6,1.6,1.6s1.6-0.7,1.6-1.6S12.7,2.4,11.8,2.4z"/>
	</g>
	<g>
		<path class="st0" d="M7,14.4c-2.6,0-4.8-2.1-4.8-4.8C2.2,7,4.3,4.9,7,4.9s4.8,2.1,4.8,4.8C11.7,12.3,9.6,14.4,7,14.4z M7,5.4
			c-2.3,0-4.3,1.9-4.3,4.3s1.9,4.3,4.3,4.3c2.3,0,4.3-1.9,4.3-4.3S9.3,5.4,7,5.4z"/>
	</g>
</g>
</svg>
