<?xml version="1.0" encoding="utf-8"?>
<!-- Generator: Adobe Illustrator 27.3.1, SVG Export Plug-In . SVG Version: 6.00 Build 0)  -->
<svg version="1.1" id="Layer_1" xmlns="http://www.w3.org/2000/svg" xmlns:xlink="http://www.w3.org/1999/xlink" x="0px" y="0px"
	 viewBox="0 0 17 17.6" style="enable-background:new 0 0 17 17.6;" xml:space="preserve">
<style type="text/css">
	.st0{fill:#221F1F;}
</style>
<g id="CreatureIcon_00000115513866167091125720000008403278677040024491_">
	<g>
		<path class="st0" d="M2.7,7.7C1.2,7.7,0,6.5,0,5s1.2-2.7,2.7-2.7S5.5,3.4,5.5,5S4.2,7.7,2.7,7.7z M2.7,3.2C1.8,3.2,1,4,1,5
			s0.8,1.7,1.7,1.7S4.5,5.9,4.5,5S3.7,3.2,2.7,3.2z"/>
	</g>
	<g>
		<path class="st0" d="M8.5,5.5C7,5.5,5.8,4.2,5.8,2.7S7,0,8.5,0s2.7,1.2,2.7,2.7S10,5.5,8.5,5.5z M8.5,1c-1,0-1.7,0.8-1.7,1.7
			s0.8,1.7,1.7,1.7c1,0,1.7-0.8,1.7-1.7S9.5,1,8.5,1z"/>
	</g>
	<g>
		<path class="st0" d="M14.3,7.7c-1.5,0-2.7-1.2-2.7-2.7s1.2-2.7,2.7-2.7S17,3.4,17,5S15.8,7.7,14.3,7.7z M14.3,3.2
			c-1,0-1.7,0.8-1.7,1.7s0.8,1.7,1.7,1.7S16,5.9,16,5S15.3,3.2,14.3,3.2z"/>
	</g>
	<g>
		<path class="st0" d="M8.5,17.6c-3.2,0-5.9-2.6-5.9-5.9c0-3.2,2.6-5.9,5.9-5.9c3.2,0,5.9,2.6,5.9,5.9C14.4,15,11.8,17.6,8.5,17.6z
			 M8.5,6.8c-2.7,0-4.9,2.2-4.9,4.9c0,2.7,2.2,4.9,4.9,4.9s4.9-2.2,4.9-4.9C13.4,9,11.2,6.8,8.5,6.8z"/>
	</g>
</g>
</svg>
