<?xml version="1.0" encoding="utf-8"?>
<!-- Generator: Adobe Illustrator 27.3.1, SVG Export Plug-In . SVG Version: 6.00 Build 0)  -->
<svg version="1.1" id="Layer_1" xmlns="http://www.w3.org/2000/svg" xmlns:xlink="http://www.w3.org/1999/xlink" x="0px" y="0px"
	 viewBox="0 0 14.9 8.3" style="enable-background:new 0 0 14.9 8.3;" xml:space="preserve">
<style type="text/css">
	.st0{fill:#231F20;}
</style>
<g id="FieldIcon">
	<g>
		<path class="st0" d="M0.2,8.3c-0.1,0-0.1,0-0.2-0.1C0,8.1,0,8,0.1,7.9c1.6-1.5,7.3-6.3,14.6-6.4c0,0,0,0,0,0
			c0.1,0,0.2,0.1,0.2,0.2c0,0.1-0.1,0.3-0.2,0.3C7.6,2,2,6.8,0.4,8.2C0.4,8.3,0.3,8.3,0.2,8.3z"/>
	</g>
	<g>
		<path class="st0" d="M3.1,8.3C3,8.3,3,8.3,2.9,8.2c-0.1-0.1-0.1-0.3,0-0.4c2.6-2.1,6.7-4.6,11.7-5c0.1,0,0.3,0.1,0.3,0.2
			s-0.1,0.3-0.2,0.3C9.8,3.7,5.8,6.2,3.3,8.2C3.2,8.3,3.2,8.3,3.1,8.3z"/>
	</g>
	<g>
		<path class="st0" d="M6.1,8.3C6,8.3,6,8.3,5.9,8.2C5.8,8.1,5.9,7.9,6,7.8c2.8-1.9,5.7-3,8.7-3.4c0.1,0,0.3,0.1,0.3,0.2
			c0,0.1-0.1,0.3-0.2,0.3C11.9,5.3,9,6.4,6.3,8.3C6.2,8.3,6.2,8.3,6.1,8.3z"/>
	</g>
	<g>
		<path class="st0" d="M9.7,8.3c-0.1,0-0.2,0-0.2-0.1C9.4,8,9.4,7.9,9.6,7.8c1.7-0.9,3.4-1.5,5.1-1.8c0.1,0,0.3,0.1,0.3,0.2
			c0,0.1-0.1,0.3-0.2,0.3c-1.7,0.3-3.3,0.9-4.9,1.7C9.7,8.3,9.7,8.3,9.7,8.3z"/>
	</g>
	<g>
		<path class="st0" d="M9.2,2.9c0,0-0.1,0-0.1,0c-3-1.5-5.9-2.3-8.7-2.4c-0.1,0-0.2-0.1-0.2-0.3C0.1,0.1,0.2,0,0.3,0c0,0,0,0,0,0
			c2.9,0,5.9,0.8,9,2.4c0.1,0.1,0.2,0.2,0.1,0.3C9.4,2.9,9.3,2.9,9.2,2.9z"/>
	</g>
	<g>
		<path class="st0" d="M7,3.8c0,0-0.1,0-0.1,0c-2.2-1-4.4-1.7-6.6-1.8c-0.1,0-0.2-0.1-0.2-0.3c0-0.1,0.1-0.2,0.3-0.2
			c2.3,0.2,4.5,0.8,6.8,1.9c0.1,0.1,0.2,0.2,0.1,0.3C7.2,3.7,7.1,3.8,7,3.8z"/>
	</g>
	<g>
		<path class="st0" d="M5,4.8C5,4.8,5,4.8,5,4.8C3.4,4.1,1.9,3.7,0.3,3.5c-0.1,0-0.2-0.1-0.2-0.3S0.2,3,0.4,3C2,3.2,3.6,3.6,5.1,4.3
			c0.1,0.1,0.2,0.2,0.1,0.3C5.2,4.7,5.1,4.8,5,4.8z"/>
	</g>
	<g>
		<path class="st0" d="M3.2,5.9C3.2,5.9,3.2,5.9,3.2,5.9c-1.1-0.4-2-0.6-2.9-0.8C0.2,5.1,0.1,5,0.1,4.8c0-0.1,0.2-0.2,0.3-0.2
			c1,0.2,1.9,0.4,2.9,0.8c0.1,0,0.2,0.2,0.1,0.3C3.4,5.8,3.3,5.9,3.2,5.9z"/>
	</g>
</g>
</svg>
