<?xml version="1.0" encoding="utf-8"?>
<!-- Generator: Adobe Illustrator 27.3.1, SVG Export Plug-In . SVG Version: 6.00 Build 0)  -->
<svg version="1.1" id="Layer_1" xmlns="http://www.w3.org/2000/svg" xmlns:xlink="http://www.w3.org/1999/xlink" x="0px" y="0px"
	 viewBox="0 0 13.4 13.8" style="enable-background:new 0 0 13.4 13.8;" xml:space="preserve">
<g id="AuraIcon">
	<g>
		<g>
			<path d="M7.9,4.3c-2.2,0-4.1-1.8-4.1-4C3.8,0.1,3.9,0,4,0s0.2,0.1,0.2,0.2c0,2,1.6,3.5,3.6,3.5C8,3.8,8.1,3.9,8.1,4
				S8,4.3,7.9,4.3z"/>
		</g>
		<g>
			<path d="M0.2,4.3C0.1,4.3,0,4.2,0,4s0.1-0.2,0.2-0.2c2,0,3.5-1.6,3.5-3.5C3.8,0.1,3.9,0,4,0s0.2,0.1,0.2,0.2
				C4.3,2.5,2.5,4.3,0.2,4.3z"/>
		</g>
		<g>
			<path d="M4,8.1C3.9,8.1,3.8,8,3.8,7.8c0-2-1.6-3.5-3.5-3.5C0.1,4.3,0,4.2,0,4s0.1-0.2,0.2-0.2c2.2,0,4,1.8,4,4
				C4.3,8,4.2,8.1,4,8.1z"/>
		</g>
		<g>
			<path d="M4,8.1C3.9,8.1,3.8,8,3.8,7.8c0-2.2,1.8-4,4.1-4C8,3.8,8.1,3.9,8.1,4S8,4.3,7.9,4.3c-2,0-3.6,1.6-3.6,3.5
				C4.3,8,4.2,8.1,4,8.1z"/>
		</g>
	</g>
	<g>
		<g>
			<path d="M8.3,11.3c-1.5,0-2.8-1.2-2.8-2.8c0-0.1,0.1-0.2,0.2-0.2S6,8.4,6,8.5c0,1.2,1,2.3,2.3,2.3c0.1,0,0.2,0.1,0.2,0.2
				S8.4,11.3,8.3,11.3z"/>
		</g>
		<g>
			<path d="M3.2,11.3c-0.1,0-0.2-0.1-0.2-0.2s0.1-0.2,0.2-0.2c1.2,0,2.3-1,2.3-2.3c0-0.1,0.1-0.2,0.2-0.2S6,8.4,6,8.5
				C6,10.1,4.8,11.3,3.2,11.3z"/>
		</g>
		<g>
			<path d="M5.8,13.8c-0.1,0-0.2-0.1-0.2-0.2c0-1.2-1-2.3-2.3-2.3c-0.1,0-0.2-0.1-0.2-0.2s0.1-0.2,0.2-0.2C4.8,10.8,6,12,6,13.6
				C6,13.7,5.9,13.8,5.8,13.8z"/>
		</g>
		<g>
			<path d="M5.8,13.8c-0.1,0-0.2-0.1-0.2-0.2c0-1.5,1.2-2.8,2.8-2.8c0.1,0,0.2,0.1,0.2,0.2s-0.1,0.2-0.2,0.2c-1.2,0-2.3,1-2.3,2.3
				C6,13.7,5.9,13.8,5.8,13.8z"/>
		</g>
	</g>
	<g>
		<g>
			<path d="M13.1,7.7c-1.9,0-3.4-1.5-3.4-3.4c0-0.1,0.1-0.2,0.2-0.2s0.2,0.1,0.2,0.2c0,1.6,1.3,2.9,2.9,2.9c0.1,0,0.2,0.1,0.2,0.2
				S13.3,7.7,13.1,7.7z"/>
		</g>
		<g>
			<path d="M6.9,7.7c-0.1,0-0.2-0.1-0.2-0.2s0.1-0.2,0.2-0.2c1.6,0,2.9-1.3,2.9-2.9c0-0.1,0.1-0.2,0.2-0.2s0.2,0.1,0.2,0.2
				C10.3,6.2,8.7,7.7,6.9,7.7z"/>
		</g>
		<g>
			<path d="M10,10.8c-0.1,0-0.2-0.1-0.2-0.2c0-1.6-1.3-2.9-2.9-2.9c-0.1,0-0.2-0.1-0.2-0.2s0.1-0.2,0.2-0.2c1.9,0,3.4,1.5,3.4,3.4
				C10.2,10.7,10.1,10.8,10,10.8z"/>
		</g>
		<g>
			<path d="M10,10.8c-0.1,0-0.2-0.1-0.2-0.2c0-1.9,1.5-3.4,3.4-3.4c0.1,0,0.2,0.1,0.2,0.2s-0.1,0.2-0.2,0.2c-1.6,0-2.9,1.3-2.9,2.9
				C10.3,10.7,10.1,10.8,10,10.8z"/>
		</g>
	</g>
</g>
</svg>
