<?xml version="1.0" encoding="utf-8"?>
<!-- Generator: Adobe Illustrator 27.3.1, SVG Export Plug-In . SVG Version: 6.00 Build 0)  -->
<svg version="1.1" id="Layer_1" xmlns="http://www.w3.org/2000/svg" xmlns:xlink="http://www.w3.org/1999/xlink" x="0px" y="0px"
	 viewBox="0 0 85 85" style="enable-background:new 0 0 85 85;" xml:space="preserve">
<g id="IconBlue">
	<g>
		<path d="M12.8,38.1l0.8-2.6c1.4-4.7,4.7-12.9,11.8-15.4c8-2.9,14.2,0.5,17.1,2.1l0.9,0.5l0,0c5.8,3.1,11.3,4,16.1,2.4l0.2-0.1
			c2.6-0.8,9-4.9,10.6-7.1l1.6-2.2l-0.8,2.6c-1.4,4.7-4.7,12.9-11.8,15.4c-7.9,2.8-14.1-0.5-17-2.1l-0.5-0.3
			c-6-3.4-11.5-4.3-16.5-2.6L25,28.9c-2.6,0.8-9,4.9-10.6,7.1L12.8,38.1z M30.3,27c3.8,0,7.8,1.2,12,3.5l0.5,0.3
			c3,1.6,8.7,4.7,16.2,2c5.8-2.1,8.9-8.2,10.5-12.8c-2.7,2.3-7.3,5.1-9.6,5.9L59.8,26c-5.2,1.6-10.9,0.8-17-2.5l0,0L41.9,23
			c-2.8-1.5-8.7-4.7-16.3-2c-5.7,2.1-8.9,8.2-10.5,12.8c2.7-2.3,7.3-5.1,9.6-5.9l0.2-0.1C26.7,27.3,28.5,27,30.3,27z"/>
	</g>
	<g>
		<path d="M12.8,69.3l0.8-2.6c1.4-4.7,4.7-12.9,11.8-15.4c8-2.9,14.1,0.5,17.1,2.1l0,0l0.9,0.5l0,0c5.9,3.2,11.3,4,16.2,2.4l0.2-0.1
			c2.6-0.8,9-4.9,10.6-7.1l1.6-2.2l-0.8,2.6c-1.4,4.7-4.7,12.9-11.8,15.4c-7.9,2.8-14.1-0.5-17-2.1l-0.5-0.3
			c-6-3.4-11.5-4.3-16.5-2.6L25,60.1c-2.6,0.8-9,4.9-10.6,7.1L12.8,69.3z M30.3,58.2c3.8,0,7.8,1.2,12,3.5l0.5,0.3
			c3,1.6,8.7,4.7,16.2,2c5.8-2.1,8.9-8.2,10.5-12.8c-2.7,2.3-7.3,5.1-9.6,5.9l-0.2,0.1c-5.3,1.7-11.1,0.8-17.4-2.7l-0.4-0.2
			c-2.8-1.5-8.7-4.7-16.3-2c-5.8,2.1-8.9,8.2-10.5,12.8c2.7-2.3,7.3-5.1,9.6-5.9l0.2-0.1C26.7,58.5,28.5,58.2,30.3,58.2z"/>
	</g>
	<g>
		<path d="M12.8,53.7l0.8-2.6c1.4-4.7,4.7-12.9,11.8-15.4c8.1-2.9,14.2,0.5,17.1,2.1l0,0l0,0l0.5,0.3c6,3.3,11.6,4.2,16.6,2.6
			l0.2-0.1c2.6-0.8,9-4.9,10.6-7.1l1.6-2.2L71.2,34c-1.4,4.7-4.7,12.9-11.8,15.4c-7.9,2.8-14.1-0.5-17-2.1l-0.5-0.3
			c-6-3.4-11.5-4.3-16.5-2.6L25,44.5c-2.6,0.8-9,4.9-10.6,7.1L12.8,53.7z M30.3,42.6c3.8,0,7.8,1.2,12,3.5l0.5,0.3
			c3,1.6,8.7,4.7,16.2,2c5.8-2.1,8.9-8.2,10.5-12.8c-2.7,2.3-7.3,5.1-9.6,5.9l-0.2,0.1c-5.3,1.7-11.1,0.7-17.4-2.7l-0.4-0.2
			c-2.8-1.5-8.7-4.7-16.3-2c-5.8,2.1-8.9,8.2-10.5,12.8c2.7-2.3,7.3-5.1,9.6-5.9l0.2-0.1C26.7,42.9,28.5,42.6,30.3,42.6z"/>
	</g>
</g>
</svg>
