<?xml version="1.0" encoding="utf-8"?>
<!-- Generator: Adobe Illustrator 27.3.1, SVG Export Plug-In . SVG Version: 6.00 Build 0)  -->
<svg version="1.1" id="Layer_1" xmlns="http://www.w3.org/2000/svg" xmlns:xlink="http://www.w3.org/1999/xlink" x="0px" y="0px"
	 viewBox="0 0 85 85" style="enable-background:new 0 0 85 85;" xml:space="preserve">
<g id="IconPurple">
	<g>
		<path d="M20.2,59.1c-4.9,0-9.4-1.4-11.7-4c-2-2.2-3-5.3-3-5.4C4.8,47.5,5,45.1,5,45l0.2-2L6,44.8c0,0,1.2,2.8,3.9,4.9
			c1.3,1,2.6,1.4,3.4,1.6c6.9,2,13.8-2.3,14.6-2.8c0.3-0.2,1.6-1.2,3.8-3.1l0.9-0.7c2.4-2,4.3-3.6,5.3-4.5l0.6-0.5
			c7.9-6.8,11.8-10.1,14.6-11.4c8.4-3.8,18.4-2.2,22.6,1.7c3.1,2.9,3.3,6.6,3.4,9c0,0.4,0,0.8,0.1,1.1l0.2,2.2l-1.1-1.9
			c-0.1-0.2-0.2-0.4-0.3-0.6c-0.9-1.7-2.6-4.8-7-6c-7.2-2-14.3,2.6-14.6,2.8c-0.3,0.2-1.6,1.2-3.8,3.1l-0.9,0.7
			c-2.4,2-4.3,3.6-5.3,4.5l-0.6,0.5c-7.9,6.8-11.8,10.1-14.6,11.4C27.7,58.3,23.9,59.1,20.2,59.1z M6,47c0,0.7,0.2,1.6,0.4,2.4
			c0,0,1,3,2.8,5.1c3.8,4.2,13.8,4.9,21.4,1.5c2.7-1.2,6.9-4.8,14.4-11.3l0.6-0.5c1-0.8,2.9-2.5,5.3-4.5l0.9-0.7
			c2.4-2,3.6-2.9,3.9-3.2c0.3-0.2,7.8-5,15.4-3c3.8,1,5.8,3.4,6.9,5.2c-0.1-2.3-0.6-5-3-7.3c-3.9-3.6-13.5-5.1-21.5-1.5
			c-2.7,1.2-6.9,4.8-14.4,11.3l-0.6,0.5c-1,0.9-2.9,2.5-5.3,4.5l-0.9,0.7c-2.4,2-3.6,2.9-3.9,3.2c-0.8,0.5-8.1,5.1-15.4,3
			c-0.9-0.2-2.3-0.7-3.7-1.8C7.8,49.3,6.7,48,6,47z"/>
	</g>
	<g>
		<path d="M5.2,41.5l-0.2-2c0-0.1-0.2-2.6,0.5-4.7c0-0.1,1-3.2,3-5.4c3.6-4.1,14.5-6.8,22.7-1.7c5.1,3.2,6.9,9.3,7,9.6l0.3,1.2
			l-1.1-0.6c-0.1,0-6.6-3.7-8.9-4.5l0,0c-6.8-2.2-11.1-1.3-15.2-0.2c-2,0.6-3.4,1.6-3.4,1.6c-2.7,2-3.9,4.8-3.9,4.9L5.2,41.5z
			 M20.9,25.7c-5,0-9.6,1.9-11.7,4.2C7.4,32,6.5,35,6.4,35c-0.3,0.8-0.4,1.7-0.4,2.4c0.7-1,1.7-2.4,3.3-3.5c0.2-0.1,1.6-1.2,3.8-1.8
			c4.3-1.2,8.7-2.1,15.7,0.2c1.8,0.6,5.9,2.8,7.9,3.9c-0.8-1.9-2.7-5.6-6.1-7.8C27.6,26.5,24.2,25.7,20.9,25.7z"/>
	</g>
	<g>
		<path d="M63.7,60.3c-3.4,0-7-0.8-10.2-2.8c-5.1-3.2-6.9-9.3-7-9.6l-0.3-1.2l1.1,0.6c0.1,0,6.6,3.7,8.9,4.5
			C63,54,67.3,53.2,71.4,52c2-0.6,3.4-1.6,3.4-1.6c2.7-2,3.9-4.8,3.9-4.9l0.8-1.9l0.2,2c0,0.1,0.2,2.6-0.5,4.7c0,0.1-1,3.2-3,5.4
			C74,58.3,69.1,60.3,63.7,60.3z M48,48.9c0.8,1.9,2.7,5.6,6.1,7.8c7.7,4.9,18,2.3,21.4-1.5c1.8-2.1,2.8-5,2.8-5.1
			c0.3-0.8,0.4-1.7,0.4-2.4c-0.7,1-1.7,2.4-3.3,3.5c-0.1,0-1.6,1.2-3.8,1.8c-4.3,1.2-8.7,2.1-15.7-0.2l0,0C54.1,52.2,50,50,48,48.9z
			"/>
	</g>
</g>
</svg>
