<?xml version="1.0" encoding="utf-8"?>
<!-- Generator: Adobe Illustrator 27.3.1, SVG Export Plug-In . SVG Version: 6.00 Build 0)  -->
<svg version="1.1" id="Layer_1" xmlns="http://www.w3.org/2000/svg" xmlns:xlink="http://www.w3.org/1999/xlink" x="0px" y="0px"
	 viewBox="0 0 72.5 75.5" style="enable-background:new 0 0 72.5 75.5;" xml:space="preserve">
<g id="Icon">
	<g>
		<path d="M25.9,75.5c-4.6,0-9.2-1.2-13.3-3.7c-9.7-5.8-14.5-17-12-28l1-4.6l2.6,3.9c4.1,6.3,9.8,11.6,16.2,15.5
			c6.5,3.9,13.9,6.2,21.4,6.9l4.7,0.4L43,69.1C38.1,73.3,32.1,75.5,25.9,75.5z M4,49.6c0,7.6,4,14.8,10.7,18.8
			c6.7,4,14.9,4.1,21.6,0.5c-6.3-1.2-12.4-3.5-17.9-6.7C12.9,58.9,8,54.6,4,49.6z"/>
	</g>
	<g>
		<path d="M49.8,64.1l2.1-4.2c3.4-6.7,5.2-14.3,5.3-21.8c0.1-7.5-1.5-15.1-4.7-21.9l-2-4.3l4.4,1.5c10.6,3.6,17.7,13.6,17.5,24.9
			C72.3,49.6,65,59.4,54.3,62.8L49.8,64.1z M58.1,19.3c2.1,6.1,3.2,12.5,3.1,18.9C61.1,44.6,59.9,51,57.6,57
			c6.6-3.8,10.8-10.8,10.9-18.7C68.6,30.4,64.6,23.3,58.1,19.3z"/>
	</g>
	<g>
		<path d="M1.7,35.5l-0.9-4.6c-2.2-11,3-22.1,12.8-27.6c9.8-5.5,22-4.1,30.2,3.6l3.5,3.2l-4.7,0.3C37.3,10.6,29.3,12,21,16.6
			c-6.6,3.7-12.3,8.9-16.7,15.1L1.7,35.5z M26.2,4c-3.7,0-7.3,0.9-10.7,2.8c-6.9,3.8-11,10.9-11.2,18.5c4.2-4.9,9.2-9,14.8-12.1
			C25.6,9.5,32,7.7,37.1,6.9C33.8,5,30,4,26.2,4z"/>
	</g>
</g>
</svg>
