<?xml version="1.0" encoding="utf-8"?>
<!-- Generator: Adobe Illustrator 27.3.1, SVG Export Plug-In . SVG Version: 6.00 Build 0)  -->
<svg version="1.1" id="Layer_1" xmlns="http://www.w3.org/2000/svg" xmlns:xlink="http://www.w3.org/1999/xlink" x="0px" y="0px"
	 viewBox="0 0 85 85" style="enable-background:new 0 0 85 85;" xml:space="preserve">
<g id="IconCyan">
	<g>
		<path d="M74,66.3L72.9,66c-7.8-2.3-19.2-12.5-19.2-23.2c0-10.7,11.4-20,19.2-22.3l1.1-0.3l-0.6,1c-0.3,0.6-1.1,1.4-2.1,2.6
			c-3.3,3.5-9.3,10.2-9.3,19c0,9,6.1,16.1,9.4,19.9c1,1.1,1.7,2,2,2.6L74,66.3z M71.6,22c-7.4,2.9-17,11.3-17,20.8
			c0,9.6,9.6,18.7,17,21.7c-0.3-0.3-0.6-0.7-1-1.1C67.3,59.5,61,52.2,61,42.8c0-9.3,6.2-16.1,9.6-19.7C71,22.7,71.3,22.3,71.6,22z"
			/>
	</g>
	<g>
		<path d="M10.7,66.3l0.6-1c0.3-0.6,1-1.4,2-2.6c3.3-3.8,9.4-10.9,9.4-19.9c0-8.9-6.1-15.5-9.3-19c-1-1.1-1.8-2-2.1-2.6l-0.6-1
			l1.1,0.3C19.7,22.8,31,32.1,31,42.8C31,53.5,19.6,63.7,11.8,66L10.7,66.3z M13.1,22c0.3,0.3,0.6,0.7,1,1.1
			c3.3,3.6,9.6,10.4,9.6,19.7c0,9.4-6.3,16.6-9.7,20.5c-0.4,0.4-0.7,0.8-1,1.1c7.4-3,17-12.1,17-21.7C30,33.3,20.5,24.9,13.1,22z"/>
	</g>
	<g>
		<path d="M72.9,66c-7.8-2.3-19.2-12.5-19.2-23.2c0-10.7,11.4-20,19.2-22.3l0.3,1c-7.6,2.2-18.5,11.1-18.5,21.4
			c0,10.2,11,20,18.5,22.2L72.9,66z"/>
	</g>
	<g>
		<path d="M36.2,75.8l0.9-2.2c0.2-0.4,0.3-0.8,0.5-1.2c0.9-2.1,1.9-4.5,2.9-10.2c1.4-7.9,0-13-1.4-18c-1.4-5-2.7-9.8-1.3-16.9
			c1.3-6.2,3.6-11.5,7.1-16.1l1.7-2.3l-0.9,2.7c-1.2,3.9-1.9,7.7-2.1,11.4c-0.2,5,0.9,10.7,2.1,16.2c2.8,12.2,2.2,16.6,1.1,20.6
			c-1.3,5.3-3.9,9.3-9,14.4L36.2,75.8z M43.9,14.1c-3.7,5.8-4.8,11.3-5.2,13.3c-1.4,6.9-0.1,11.6,1.3,16.5
			c1.4,5.1,2.9,10.3,1.5,18.4c-0.8,4.7-1.7,7.3-2.4,9.2c3.8-4.1,5.8-7.6,6.9-12.1c1-3.9,1.6-8.1-1.2-20.1
			c-1.3-5.5-2.4-11.3-2.2-16.5C42.7,20,43.1,17.1,43.9,14.1z"/>
	</g>
</g>
</svg>
