<?xml version="1.0" encoding="utf-8"?>
<!-- Generator: Adobe Illustrator 27.3.1, SVG Export Plug-In . SVG Version: 6.00 Build 0)  -->
<svg version="1.1" id="Layer_1" xmlns="http://www.w3.org/2000/svg" xmlns:xlink="http://www.w3.org/1999/xlink" x="0px" y="0px"
	 viewBox="0 0 85 85" style="enable-background:new 0 0 85 85;" xml:space="preserve">
<g id="IconPink">
	<g>
		<path d="M7.8,58.3l0.9-3.6c1.4-5.7,4.6-13.8,11.5-20.4C23,31.5,33.3,22.8,45.5,25c2.2,0.4,3.1,0.9,4.9,1.9
			c1.4,0.8,3.3,1.8,6.8,3.3c7.4,3.1,11.8,2.1,16.5,1.1c1.1-0.2,2.2-0.5,3.4-0.7l1.1-0.2l-0.6,0.9c-3.5,5.7-7.4,8.9-11.7,9.6
			c-3.8,0.6-4.9-0.1-7.6-1.7c-1.3-0.8-3-1.9-5.7-3.2c-1.2-0.6-7.8-3.5-17.4-2.8C23.7,33.9,15,45.5,9.6,55L7.8,58.3z M41.5,25.6
			c-10,0-18.2,7-20.7,9.3C15.6,40,12.5,46,10.8,51c5.5-8.9,13.8-18.2,24.4-18.9c9.8-0.7,16.7,2.3,17.9,2.9c2.7,1.3,4.5,2.4,5.8,3.2
			c2.7,1.6,3.5,2.1,6.9,1.6c3.7-0.6,7.2-3.4,10.4-8.2c-0.8,0.2-1.5,0.3-2.2,0.5c-4.7,1.1-9.5,2.2-17.2-1.1c-3.5-1.5-5.5-2.6-6.9-3.3
			c-1.7-0.9-2.6-1.4-4.6-1.8C44,25.7,42.8,25.6,41.5,25.6z"/>
	</g>
	<g>
		<path d="M45.4,59.3c-2.4,0-4.6-0.7-7.1-1.5c-3.3-1-7.1-2.2-12.4-2.4c-4.1-0.1-8.2,0.5-12.3,1.7l-1.5,0.4l0.9-1.2
			c4.5-5.9,9.3-9,14.2-9.3c3.5-0.2,6,1.2,8.5,2.5c2.2,1.2,4.4,2.3,7.5,2.6c5.5,0.4,11.4-2.5,17.5-8.8l1.8-1.9l-1,2.4
			c-3.5,8.5-7.9,13.6-13,15.1C47.4,59.2,46.4,59.3,45.4,59.3z M25.1,54.5c0.3,0,0.5,0,0.8,0c5.5,0.1,9.5,1.4,12.7,2.4
			c3.5,1.1,6.3,2,9.6,1.1c4.3-1.2,8.1-5.3,11.3-12.1c-5.7,5.3-11.2,7.7-16.4,7.3c-3.2-0.3-5.6-1.5-7.8-2.7c-2.5-1.3-4.8-2.5-8-2.3
			c-4.3,0.2-8.4,2.8-12.5,7.7C18.2,54.9,21.6,54.5,25.1,54.5z"/>
	</g>
	<g>
		<path d="M39.2,48.3c-3.4,0-6.6-1.6-8.2-4.4c-1.3-2.3-2.1-6.8,0.1-8.7c0.7-0.7,1.8-1,3.1-0.9l0.6,0l-0.2,0.6
			c-0.2,0.9-0.7,3.2,0.4,5c1.7,2.8,5.8,2.3,7.5,2c3.5-0.7,5.8-3.3,6.8-4.7l1.2-1.7l-0.3,2.1c-0.2,1.1-1.3,6.9-6,9.5
			C42.6,47.9,40.9,48.3,39.2,48.3z M33.5,35.3c-0.7,0-1.3,0.2-1.7,0.6l0,0c-1.5,1.4-1.2,5.2,0.1,7.5c2.1,3.7,7.7,5,11.8,2.8
			c2.9-1.6,4.4-4.6,5-6.7c-1.3,1.4-3.3,2.9-6,3.4c-4,0.8-7.1-0.1-8.5-2.5C33,38.7,33.2,36.5,33.5,35.3z"/>
	</g>
</g>
</svg>
