<?xml version="1.0" encoding="utf-8"?>
<!-- Generator: Adobe Illustrator 27.3.1, SVG Export Plug-In . SVG Version: 6.00 Build 0)  -->
<svg version="1.1" id="Layer_1" xmlns="http://www.w3.org/2000/svg" xmlns:xlink="http://www.w3.org/1999/xlink" x="0px" y="0px"
	 viewBox="0 0 85 85" style="enable-background:new 0 0 85 85;" xml:space="preserve">
<g id="IconBlack">
	<g>
		<path d="M45.3,31.6l0.2-1.4c0.4-3.5,3.5-6.2,7.3-6.3c3.7-0.1,7,2.4,7.7,5.8l0.3,1.4l-1.1-0.9c-0.8-0.7-3.1-2.3-6.4-2.3
			c0,0-0.1,0-0.1,0c-3.6,0-6,1.9-6.8,2.7L45.3,31.6z M52.9,24.9c-0.1,0-0.1,0-0.2,0c-2.7,0.1-5,1.7-5.9,4c1.3-0.9,3.5-2,6.3-2
			c2.5,0,4.5,0.8,5.8,1.6C57.9,26.4,55.5,24.9,52.9,24.9z"/>
	</g>
	<g>
		<path d="M42.6,77.1c-3.2,0-18.3-0.7-27.4-12.6c-7.1-9.3-7.9-22-1.9-32.3l1.3-2.2l-0.4,2.6c-0.5,3.1-1.3,14.1,6.9,23.2
			c8.1,9,19.4,10.1,23.6,10.5c11.3,1.1,20.2-2.7,24.6-5l1.7-0.9l-1,1.6c-0.9,1.5-9.6,14.4-26.8,15.1C43.2,77.1,43,77.1,42.6,77.1z
			 M13,34.9c-4.5,9.5-3.4,20.7,3,29c9.7,12.7,26.5,12.2,27.2,12.2C57,75.5,65.1,66.8,68,63c-4.9,2.3-13.2,5.2-23.3,4.2
			c-4.4-0.4-15.9-1.5-24.3-10.8C13.5,48.7,12.8,39.7,13,34.9z"/>
	</g>
	<g>
		<path d="M51.2,61.1c-1.4,0-2.8-0.1-4.2-0.3c-14.4-2-23.3-13.4-25.6-23.2C17.7,21.7,32,8.3,32.1,8.2l2-1.8l-1.2,2.4
			c-0.1,0.1-5.1,10.5-1.2,21.8c4,11.6,16.1,17,18.5,18C61,52.9,71,50.8,74.8,49.7l1.7-0.5l-1.2,1.3C74.2,51.7,65,61.1,51.2,61.1z
			 M31.1,10.7c-3.6,4.1-11.5,14.7-8.7,26.6c2.2,9.4,10.9,20.5,24.8,22.4c13.1,1.8,22.7-5.5,26.1-8.7c-4.8,1.1-13.8,2.2-23.4-1.6
			c-2.5-1-14.9-6.5-19.1-18.6C27.9,22.5,29.7,14.6,31.1,10.7z"/>
	</g>
</g>
</svg>
