<?xml version="1.0" encoding="utf-8"?>
<!-- Generator: Adobe Illustrator 27.3.1, SVG Export Plug-In . SVG Version: 6.00 Build 0)  -->
<svg version="1.1" id="Layer_1" xmlns="http://www.w3.org/2000/svg" xmlns:xlink="http://www.w3.org/1999/xlink" x="0px" y="0px"
	 viewBox="0 0 85 85" style="enable-background:new 0 0 85 85;" xml:space="preserve">
<g id="IconBrown">
	<g>
		<path d="M35.5,77.1c-4.3,0-8.6-1.1-12.5-3.5c-9.1-5.4-13.7-16-11.3-26.4l0.3-1.1l0.6,1c4.3,6.5,10.1,12,16.7,16
			c6.7,4,14.3,6.4,22,7.1l1.2,0.1l-0.9,0.8C47,75,41.3,77.1,35.5,77.1z M12.4,48.7c-1.7,9.5,2.7,19.1,11.1,24.1
			c8.4,5,18.9,4.3,26.5-1.7c-7.5-0.8-14.8-3.3-21.2-7.1C22.4,60.1,16.7,54.8,12.4,48.7z"/>
	</g>
	<g>
		<path d="M59.3,66.5l0.5-1c3.5-6.9,5.4-14.7,5.5-22.5c0.1-7.7-1.6-15.6-4.8-22.6L60,19.3l1.1,0.4c10,3.4,16.7,12.9,16.5,23.5
			c-0.1,10.6-7,19.8-17.2,23L59.3,66.5z M61.9,21c3,6.9,4.5,14.5,4.4,21.9c-0.1,7.5-1.8,15-5,21.8c9.1-3.3,15.2-11.9,15.3-21.7
			C76.7,33.3,70.8,24.6,61.9,21z"/>
	</g>
	<g>
		<path d="M12.1,38.3l-0.2-1.2c-2-10.4,2.8-20.9,12.1-26c9.2-5.2,20.7-3.8,28.5,3.4l0.9,0.8l-1.2,0.1c-5.4,0.3-13.6,1.7-22.2,6.5
			c-6.8,3.8-12.7,9.1-17.2,15.5L12.1,38.3z M35.8,9c-3.9,0-7.9,1-11.4,3c-8.5,4.8-13.2,14.2-11.8,23.8c4.5-6.1,10.2-11.2,16.8-14.8
			c8.1-4.5,15.9-6.1,21.4-6.5C46.5,10.9,41.2,9,35.8,9z"/>
	</g>
</g>
</svg>
