<?xml version="1.0" encoding="utf-8"?>
<!-- Generator: Adobe Illustrator 27.3.1, SVG Export Plug-In . SVG Version: 6.00 Build 0)  -->
<svg version="1.1" id="Layer_1" xmlns="http://www.w3.org/2000/svg" xmlns:xlink="http://www.w3.org/1999/xlink" x="0px" y="0px"
	 viewBox="0 0 85 85" style="enable-background:new 0 0 85 85;" xml:space="preserve">
<g id="IconYellow">
	<g>
		<path d="M32.4,54.7l-1-1.5c-3.3-5.2-4.4-8.8-3.9-12.9c0.4-2.8,3.2-10,11.4-17.2c7.1-6.3,7.9-17.1,8-17.2L47,4l0.8,1.6
			c0.1,0.1,5,10.1-1.4,17.4c-0.7,0.7-1.4,1.5-2.3,2.4c-3.7,3.8-8.9,9-11.1,18.5c-1,4.2-0.9,6.2-0.7,7.9c0,0.3,0,0.7,0.1,1L32.4,54.7
			z M47.6,7.8c-0.6,3.5-2.4,11-8,15.9c-8,7.1-10.7,14-11.1,16.6c-0.4,3.4,0.3,6.5,2.7,10.6c-0.1-1.6,0-3.6,0.8-7.2
			c2.3-9.8,7.6-15.1,11.4-19c0.8-0.8,1.6-1.6,2.2-2.3C50,17.4,48.6,10.9,47.6,7.8z"/>
	</g>
	<g>
		<path d="M34.7,56.2l-0.2-1.6c0-0.3-0.9-8.5,3.3-12.5l0,0l0.3,0.4l-0.3-0.4c1.2-1.1,3.8-3.5,5.1-4.6c4.3-3.5,6.4-7.1,6.5-7.1
			l0.8-1.4l0.1,1.6c0,0.4,0.7,8.6-3.5,12.5l-0.9,0.8c-1.3,1.2-3.2,2.9-4.2,3.8c-4.3,3.5-6.2,7-6.2,7L34.7,56.2z M38.1,42.5l0.3,0.4
			c-2.8,2.6-3.1,7.6-3.1,10.1c1-1.4,2.7-3.6,5.6-6c1.1-0.9,2.9-2.5,4.2-3.8l0.9-0.8c2.8-2.6,3.3-7.7,3.3-10.2
			c-1,1.4-2.9,3.7-5.8,6.1c-1.3,1.1-3.8,3.4-5,4.6L38.1,42.5z"/>
	</g>
	<g>
		<path d="M38.1,81.4l-0.8-1.6c-0.1-0.1-5-10.1,1.4-17.4c0.7-0.7,1.4-1.5,2.3-2.4c3.7-3.8,8.9-9,11.1-18.5c1-4.2,0.9-6.2,0.7-7.9
			c0-0.3,0-0.7-0.1-1l-0.1-1.8l1,1.5c3.3,5.2,4.4,8.8,3.9,12.9c-0.4,2.8-3.2,10-11.4,17.2c-7.1,6.3-7.9,17.1-8,17.2L38.1,81.4z
			 M53.9,34.5c0.1,1.6,0,3.6-0.8,7.2c-2.3,9.8-7.6,15.1-11.4,19c-0.8,0.8-1.6,1.6-2.2,2.3c-4.4,5-3,11.5-2,14.6
			c0.6-3.5,2.4-11,8-15.9c8-7.1,10.7-14,11.1-16.6C57.1,41.6,56.3,38.6,53.9,34.5z"/>
	</g>
</g>
</svg>
