<?xml version="1.0" encoding="utf-8"?>
<!-- Generator: Adobe Illustrator 27.3.1, SVG Export Plug-In . SVG Version: 6.00 Build 0)  -->
<svg version="1.1" id="Layer_1" xmlns="http://www.w3.org/2000/svg" xmlns:xlink="http://www.w3.org/1999/xlink" x="0px" y="0px"
	 viewBox="0 0 85 85" style="enable-background:new 0 0 85 85;" xml:space="preserve">
<g id="IconGreen">
	<g>
		<path d="M26.4,40c-1.3,0-2.4-0.2-3.1-0.4l-1.1-0.3l1-0.6c5.2-3.2,9.4-8,12.7-14.3c3.5-6.7,4.7-12.9,5.5-17.4l0.8-3.9l0.7,3.8
			c0.8,4.5,2,10.7,5.5,17.4c3.3,6.3,7.5,11.1,12.7,14.3l1,0.6L61,39.5c-2.3,0.7-8.2,1.5-13.6-5.3c-2.6-3.2-4.2-7.1-5.2-10.3
			c-1.3,4.2-3.1,7.7-5.2,10.4C33.2,39,29.3,40,26.4,40z M24.8,38.9c2.6,0.4,7.1,0.2,11.4-5.3c2.3-2.9,4.2-6.9,5.5-11.7l0.5-1.7
			l0.5,1.7c0.9,3.2,2.6,7.9,5.5,11.5c4.3,5.4,8.9,5.7,11.4,5.3c-4.9-3.3-8.9-8-12.1-14c-3.2-6.3-4.5-12-5.4-16.4
			c-0.8,4.4-2.1,10.2-5.4,16.5C33.7,30.9,29.6,35.6,24.8,38.9z"/>
	</g>
	<g>
		<path d="M19.3,54.5c-1.8,0-3.3-0.2-4.3-0.3l-2.3-0.3l2.2-0.7c7.6-2.3,13.9-5.7,18.6-10.1c5.1-4.7,6.8-9.1,8-12.3
			c0.1-0.3,0.3-0.7,0.4-1l0.5-1.2l0.8,2.1c1.2,3.2,2.9,7.5,8,12.2c4.8,4.4,11,7.9,18.6,10.1l2.2,0.7l-2.3,0.3
			c-3.3,0.5-11.7,1-19.4-3.7c-3.2-2-6-4.7-7.9-7.8c-2,3.2-4.7,5.8-7.9,7.8C29,53.7,23.4,54.5,19.3,54.5z M17.5,53.4
			c3.9,0.2,10.4-0.2,16.4-3.8c3.4-2.1,6.1-4.8,8-8.2l0.4-0.7l0.4,0.7c1.9,3.3,4.7,6.1,8,8.1c6,3.7,12.4,4.1,16.4,3.8
			c-6.7-2.3-12.3-5.5-16.7-9.6c-5.1-4.8-6.9-9.1-8.1-12.4c-1.3,3.3-3,7.6-8.1,12.4C29.8,47.9,24.2,51.1,17.5,53.4z"/>
	</g>
	<g>
		<path d="M41.3,80.7l0.7-1.5c0.1-0.2,0.2-0.4,0.3-0.5c0.5-1,1-2,1.4-4.7c0.5-3.7-1-6.3-2.4-8.8c-1.4-2.5-2.8-5.1-2.2-8.6
			c0.2-1.1,0.8-4.6,4.3-7.6l1.4-1.3l-0.6,1.8c-0.6,1.8-0.9,3.6-0.7,5.3c0.2,2.4,1.4,5.3,2.8,8c3.1,6.3,2.9,8.5,2.4,10.5
			c-0.7,2.6-2.3,4.5-5.8,6.6L41.3,80.7z M42.7,51c-2.1,2.4-2.5,4.8-2.6,5.7c-0.5,3.2,0.8,5.5,2.1,8c1.5,2.7,3,5.4,2.5,9.4
			c-0.2,1.9-0.6,3.1-0.9,3.9c2.3-1.6,3.4-3.1,3.9-5c0.4-1.8,0.6-3.8-2.3-9.8c-1.4-2.8-2.7-5.8-2.9-8.4C42.3,53.5,42.4,52.3,42.7,51z
			"/>
	</g>
</g>
</svg>
