<?xml version="1.0" encoding="utf-8"?>
<!-- Generator: Adobe Illustrator 27.3.1, SVG Export Plug-In . SVG Version: 6.00 Build 0)  -->
<svg version="1.1" id="Layer_1" xmlns="http://www.w3.org/2000/svg" xmlns:xlink="http://www.w3.org/1999/xlink" x="0px" y="0px"
	 viewBox="0 0 85 85" style="enable-background:new 0 0 85 85;" xml:space="preserve">
<g id="IconWhite">
	<g>
		<path d="M45.7,79.8c-0.2-0.1-22.2-12.8-28-35.9c-1-3.8-3.4-17,4.9-25.9l0,0c4.2-4.5,7.9-6.8,11.3-7.1l1-0.1l-0.5,0.8
			C28.5,22,26,32.4,26.9,42.3C29,64.2,46.1,78.8,46.2,78.9L45.7,79.8z M33,11.9c-2.9,0.6-6.1,2.9-9.7,6.7h0c-8,8.5-5.6,21.3-4.7,25
			C22.7,60.1,35.2,71.1,41.9,76c-5.3-5.7-14.4-17.8-15.9-33.6C25,32.6,27.4,22.3,33,11.9z"/>
	</g>
	<g>
		<path d="M30.2,35.3l0.8-2.6c0.8-2.6,2.8-7.1,7-8.5c4.7-1.6,8.2,0.1,9.9,0.9l0.3,0.2c3.3,1.7,6.4,2.1,9.2,1.2l0.1,0
			c1.5-0.5,5.1-2.7,6-3.8l1.7-2.1l-0.8,2.6c-0.8,2.6-2.8,7.1-7,8.5c-4.6,1.6-8.2-0.1-9.8-1l-0.3-0.1c-3.3-1.7-6.4-2.1-9.2-1.2
			l-0.1,0c-1.5,0.5-5.1,2.7-6,3.8L30.2,35.3z M41,27.8c2.1,0,4.4,0.6,6.7,1.8l0.3,0.1c1.7,0.8,4.8,2.4,9.1,0.9c2.9-1,4.6-3.7,5.7-6
			c-1.6,1.2-3.8,2.4-4.9,2.8l-0.1,0c-3,0.9-6.2,0.6-9.6-1.1l0,0L47.4,26c-1.7-0.8-4.8-2.4-9.1-0.9c-2.9,1-4.6,3.7-5.7,6
			c1.6-1.2,3.8-2.4,4.9-2.8l0.1,0C38.8,28,39.9,27.8,41,27.8z"/>
	</g>
	<g>
		<path d="M31.5,27l0.8-2.6c0.8-2.6,2.8-7.1,7-8.5c4.7-1.7,8.2,0.1,9.9,1l0.6,0.3l0,0c3.2,1.5,6.2,1.9,8.9,1l0.1,0
			c1.5-0.5,5.1-2.7,6-3.8l1.7-2.1l-0.8,2.6c-0.8,2.6-2.8,7.1-7,8.5c-4.6,1.6-8.1-0.1-9.8-0.9l-0.3-0.1c-3.3-1.7-6.4-2.1-9.2-1.2
			l-0.1,0c-1.5,0.5-5.1,2.7-6,3.8L31.5,27z M42.4,19.5c2.1,0,4.4,0.6,6.7,1.8l0.3,0.1c1.7,0.8,4.8,2.4,9.1,0.9c2.9-1,4.6-3.7,5.7-6
			c-1.6,1.2-3.8,2.4-4.9,2.8l-0.1,0c-3.1,1-6.4,0.5-10-1.3l-0.2-0.1c-1.6-0.8-4.8-2.4-9.1-0.9c-2.9,1-4.6,3.7-5.7,6
			c1.6-1.2,3.8-2.4,4.9-2.8l0.1,0C40.1,19.7,41.3,19.5,42.4,19.5z"/>
	</g>
</g>
</svg>
