<?xml version="1.0" encoding="utf-8"?>
<!-- Generator: Adobe Illustrator 27.3.1, SVG Export Plug-In . SVG Version: 6.00 Build 0)  -->
<svg version="1.1" id="Layer_1" xmlns="http://www.w3.org/2000/svg" xmlns:xlink="http://www.w3.org/1999/xlink" x="0px" y="0px"
	 viewBox="0 0 85 85" style="enable-background:new 0 0 85 85;" xml:space="preserve">
<g id="IconOrange">
	<g>
		<path d="M35.1,81.3l-2.3-1.5c-5.4-3.5-14.5-10.8-15-20.7c-0.5-11.1,5.9-17.5,9-20.6l0.6-0.6c5-5.1,11.5-13.2,12.9-16.7
			C41.6,18,43.4,9,42.4,5.9l-0.7-2.2l1.6,1.8c2.9,3.2,5.9,9.6,5.9,16.2c-0.1,7.3-3.5,13.9-10.8,20.9c-6.6,6.3-9.8,13-9.7,20l0,0.3
			c0,3.7,2.7,13.3,4.9,16.3L35.1,81.3z M43.7,7.5c0.3,4.3-1.4,11.4-2.4,14.1c-1.5,4-8.7,12.6-13.1,17l-0.6,0.6
			c-3.2,3.2-9.3,9.2-8.7,19.8c0.4,8.4,7.5,15,12.7,18.7c-2-4.2-4-11.7-4-15l0-0.3c-0.1-7.3,3.2-14.3,10-20.7
			c7.1-6.8,10.4-13.2,10.5-20.1C48.2,16.2,46,10.9,43.7,7.5z"/>
	</g>
	<g>
		<path d="M42.2,79.9l-1.1-1.2c-5.6-5.9-7.7-10.1-7.7-15.3c0.1-4,0.8-8.1,9.8-18.5c4-4.6,7.9-9.5,9.5-14.1c1.2-3.3,1.6-6.9,1.3-10.7
			l-0.1-1.9l1,1.6c3.4,5.1,4.7,10.4,4.2,16.4c-0.6,6.9-4.5,10.9-8.5,15.1c-4,4.2-8.1,8.5-9.1,15.9c-0.7,5.3-0.2,7.7,0.2,9.9
			c0.1,0.4,0.2,0.8,0.2,1.2L42.2,79.9z M55.1,21.9c0,3.2-0.5,6.3-1.5,9.2C52,35.9,48,40.9,44,45.6c-8.7,10.2-9.5,14.1-9.5,17.8
			c-0.1,4.5,1.7,8.3,6.2,13.3c-0.4-2.1-0.8-4.6-0.1-9.6c1.1-7.7,5.3-12.1,9.4-16.4c3.9-4.1,7.7-8,8.3-14.5
			C58.3,34.2,58.9,28.5,55.1,21.9z"/>
	</g>
	<g>
		<path d="M50.6,79.6l-0.8-0.9c-1.8-1.9-3.7-5.6-3.6-9c0-3.8,2.8-8.2,5-11.1c1.1-1.5,2.8-3.2,4.4-4.8c2.2-2.2,4.5-4.5,5.4-6.4
			c1.8-4.1,1.9-8.5,1.9-11.7c0-0.8,0-1.5,0-2.2l0.1-1.6l0.9,1.4c1.5,2.5,3.6,6.7,3.2,13.7c0,0.1,0,0.3,0,0.5c0,2.1-0.2,7.6-6.1,13
			c-3.6,3.3-8.1,7.2-9.2,11.8c-0.6,2.4-0.9,4.6-1,6.3L50.6,79.6z M63.7,35.3c0,0.1,0,0.2,0,0.3c0,3.3,0,7.8-2,12.1
			c-0.9,2.1-3.3,4.4-5.6,6.7c-1.6,1.6-3.3,3.2-4.3,4.7c-3.2,4.4-4.8,7.9-4.8,10.6c0,2.8,1.3,5.6,2.6,7.4c0.1-1.5,0.5-3.4,0.9-5.2
			c1.2-4.8,5.8-8.9,9.5-12.2c5.7-5.1,5.8-10.3,5.8-12.3c0-0.2,0-0.3,0-0.5C66.2,41.4,65,37.8,63.7,35.3z"/>
	</g>
</g>
</svg>
