<?xml version="1.0" encoding="utf-8"?>
<!-- Generator: Adobe Illustrator 27.3.1, SVG Export Plug-In . SVG Version: 6.00 Build 0)  -->
<svg version="1.1" id="Layer_1" xmlns="http://www.w3.org/2000/svg" xmlns:xlink="http://www.w3.org/1999/xlink" x="0px" y="0px"
	 viewBox="0 0 14.8 13.3" style="enable-background:new 0 0 14.8 13.3;" xml:space="preserve">
<style type="text/css">
	.st0{fill:#231F20;}
</style>
<g>
	<path class="st0" d="M7.4,13.3l-0.1-0.1C2.6,10.1,0.2,7.4,0,4.7l0-0.8C0.2,1.4,1.9,0.2,3.5,0c2.1-0.2,3.1,0.5,4,1.5
		c0.9-1,1.8-1.7,4-1.5c1.5,0.1,3.2,1.4,3.5,3.9l0,0.8c-0.2,2.7-2.6,5.5-7.3,8.5L7.4,13.3z M4.1,0.5c-0.2,0-0.4,0-0.6,0
		c-1.3,0.1-2.8,1.2-3,3.4l0,0.7c0.2,2.4,2.5,5.1,6.9,8c4.4-2.9,6.7-5.6,6.9-8.1l0-0.7c-0.2-2.1-1.7-3.3-3-3.4C9.3,0.4,8.5,1,7.6,2.1
		L7.4,2.3L7.2,2.1C6.4,1.1,5.7,0.5,4.1,0.5z"/>
</g>
</svg>
