<?xml version="1.0" encoding="utf-8"?>
<!-- Generator: Adobe Illustrator 27.3.1, SVG Export Plug-In . SVG Version: 6.00 Build 0)  -->
<svg version="1.1" id="Layer_1" xmlns="http://www.w3.org/2000/svg" xmlns:xlink="http://www.w3.org/1999/xlink" x="0px" y="0px"
	 viewBox="0 0 19.2 13.3" style="enable-background:new 0 0 19.2 13.3;" xml:space="preserve">
<style type="text/css">
	.st0{fill:#231F20;}
</style>
<g>
	<g>
		<path class="st0" d="M12.6,13.2c-0.1,0-0.1,0-0.2,0c-0.2-0.1-0.3-0.2-0.3-0.4V9.1h-5C7,9.1,6.9,9,6.9,8.8S7,8.6,7.1,8.6h5
			c0.2,0,0.4,0.2,0.4,0.4v3.7l6.1-6.1l-6.1-6v3.6c0,0.2-0.2,0.4-0.4,0.4h-5C7,4.7,6.9,4.5,6.9,4.4S7,4.2,7.1,4.2h5V0.4
			c0-0.2,0.1-0.3,0.3-0.4c0.2-0.1,0.4,0,0.5,0.1l6.2,6.2c0.1,0.1,0.1,0.2,0.1,0.3c0,0.1,0,0.2-0.1,0.3l-6.2,6.2
			C12.8,13.2,12.7,13.2,12.6,13.2z M12.2,9.1L12.2,9.1L12.2,9.1z"/>
	</g>
	<g>
		<path class="st0" d="M3,6.7H0.2C0.1,6.7,0,6.6,0,6.5s0.1-0.2,0.2-0.2H3c0.1,0,0.2,0.1,0.2,0.2S3.1,6.7,3,6.7z"/>
	</g>
	<g>
		<path class="st0" d="M6.4,2H3.7C3.5,2,3.4,1.9,3.4,1.8s0.1-0.2,0.2-0.2h2.7c0.1,0,0.2,0.1,0.2,0.2S6.5,2,6.4,2z"/>
	</g>
	<g>
		<path class="st0" d="M6.4,11.4H3.7c-0.1,0-0.2-0.1-0.2-0.2s0.1-0.2,0.2-0.2h2.7c0.1,0,0.2,0.1,0.2,0.2S6.5,11.4,6.4,11.4z"/>
	</g>
</g>
</svg>
