<?xml version="1.0" encoding="utf-8"?>
<!-- Generator: Adobe Illustrator 27.3.1, SVG Export Plug-In . SVG Version: 6.00 Build 0)  -->
<svg version="1.1" id="Layer_1" xmlns="http://www.w3.org/2000/svg" xmlns:xlink="http://www.w3.org/1999/xlink" x="0px" y="0px"
	 viewBox="0 0 19.4 13.5" style="enable-background:new 0 0 19.4 13.5;" xml:space="preserve">
<style type="text/css">
	.st0{fill:#221F1F;}
</style>
<g>
	<g>
		<path class="st0" d="M12.7,13.5c-0.1,0-0.1,0-0.2,0c-0.2-0.1-0.3-0.3-0.3-0.5V9.3H7.3C7,9.3,6.9,9.2,6.9,9S7,8.6,7.3,8.6h5.1
			c0.3,0,0.6,0.3,0.6,0.6v3.3l5.7-5.7L12.9,1v3.3c0,0.3-0.3,0.6-0.6,0.6H7.3C7,4.9,6.9,4.7,6.9,4.5S7,4.2,7.3,4.2h4.9V0.6
			c0-0.2,0.1-0.4,0.3-0.5c0.2-0.1,0.5,0,0.6,0.1l6.2,6.2c0.1,0.1,0.2,0.2,0.2,0.4S19.4,7,19.3,7.2l-6.2,6.2
			C13,13.4,12.8,13.5,12.7,13.5z M12.3,9.3L12.3,9.3L12.3,9.3z M18.7,6.9C18.7,6.9,18.7,6.9,18.7,6.9L18.7,6.9z M18.7,6.6
			C18.7,6.6,18.7,6.6,18.7,6.6L18.7,6.6z"/>
	</g>
	<g>
		<path class="st0" d="M3.1,7H0.4C0.2,7,0,6.8,0,6.6s0.2-0.4,0.4-0.4h2.7c0.2,0,0.4,0.2,0.4,0.4S3.3,7,3.1,7z"/>
	</g>
	<g>
		<path class="st0" d="M6.5,2.3H3.8c-0.2,0-0.4-0.2-0.4-0.4s0.2-0.4,0.4-0.4h2.7c0.2,0,0.4,0.2,0.4,0.4S6.7,2.3,6.5,2.3z"/>
	</g>
	<g>
		<path class="st0" d="M6.5,11.7H3.8c-0.2,0-0.4-0.2-0.4-0.4s0.2-0.4,0.4-0.4h2.7c0.2,0,0.4,0.2,0.4,0.4S6.7,11.7,6.5,11.7z"/>
	</g>
</g>
</svg>
