<?xml version="1.0" encoding="utf-8"?>
<!-- Generator: Adobe Illustrator 27.3.1, SVG Export Plug-In . SVG Version: 6.00 Build 0)  -->
<svg version="1.1" id="Layer_1" xmlns="http://www.w3.org/2000/svg" xmlns:xlink="http://www.w3.org/1999/xlink" x="0px" y="0px"
	 viewBox="0 0 13.3 13.3" style="enable-background:new 0 0 13.3 13.3;" xml:space="preserve">
<g>
	<g>
		<path d="M4.9,11.8c-0.1,0-0.1,0-0.2-0.1L1.5,8.5c0,0-0.1-0.1-0.1-0.2s0-0.1,0.1-0.2L3,6.7c0.1-0.1,0.3-0.1,0.4,0l3.2,3.2
			c0.1,0.1,0.1,0.3,0,0.4l-1.5,1.5C5,11.8,5,11.8,4.9,11.8z M2,8.3l2.9,2.9L6,10.1L3.2,7.2L2,8.3z"/>
	</g>
	<g>
		<path d="M2.4,13.3c-0.1,0-0.1,0-0.2-0.1L0.1,11C0,10.9,0,10.9,0,10.8c0-0.1,0-0.1,0.1-0.2L2.4,9c0.1-0.1,0.2-0.1,0.3,0l1.6,1.6
			c0.1,0.1,0.1,0.2,0,0.3l-1.6,2.3C2.6,13.2,2.5,13.2,2.4,13.3C2.5,13.3,2.4,13.3,2.4,13.3z M0.6,10.8l1.8,1.8l1.3-1.9L2.5,9.5
			L0.6,10.8z"/>
	</g>
	<g>
		<path d="M5.8,9.7c-0.1,0-0.1,0-0.2-0.1l-2-2c-0.1-0.1-0.1-0.2,0-0.3l4-6.2C7.5,1,7.6,1,7.7,1L13,0c0.1,0,0.2,0,0.2,0.1
			c0.1,0.1,0.1,0.1,0.1,0.2l-1,5.3c0,0.1-0.1,0.1-0.1,0.2L5.9,9.7C5.9,9.7,5.8,9.7,5.8,9.7z M4.1,7.4l1.7,1.8l6-3.8l0.9-4.8L7.9,1.5
			L4.1,7.4z"/>
	</g>
</g>
</svg>
