<?xml version="1.0" encoding="utf-8"?>
<!-- Generator: Adobe Illustrator 27.3.1, SVG Export Plug-In . SVG Version: 6.00 Build 0)  -->
<svg version="1.1" id="Layer_1" xmlns="http://www.w3.org/2000/svg" xmlns:xlink="http://www.w3.org/1999/xlink" x="0px" y="0px"
	 viewBox="0 0 13.5 13.5" style="enable-background:new 0 0 13.5 13.5;" xml:space="preserve">
<g>
	<g>
		<path d="M5.1,12.1c-0.1,0-0.2,0-0.3-0.1L1.6,8.7C1.5,8.6,1.5,8.5,1.5,8.4c0-0.1,0-0.2,0.1-0.3l1.5-1.4c0.1-0.1,0.4-0.1,0.5,0
			L6.8,10c0.1,0.1,0.1,0.2,0.1,0.3s0,0.2-0.1,0.3L5.3,12C5.3,12.1,5.2,12.1,5.1,12.1z M2.4,8.5l2.7,2.7l1-1L3.4,7.6L2.4,8.5z"/>
	</g>
	<g>
		<path d="M2.6,13.5c-0.1,0-0.2,0-0.3-0.1l-2.2-2.2C0,11.1,0,11,0,10.9s0.1-0.2,0.2-0.3L2.5,9c0.1-0.1,0.3-0.1,0.5,0l1.6,1.5
			c0.1,0.1,0.2,0.3,0,0.5l-1.7,2.3C2.8,13.4,2.7,13.5,2.6,13.5C2.6,13.5,2.6,13.5,2.6,13.5z M1,11l1.6,1.6l1.2-1.7L2.6,9.8L1,11z"/>
	</g>
	<g>
		<path d="M6,10c-0.1,0-0.2,0-0.3-0.1l-2.1-2C3.5,7.8,3.5,7.6,3.5,7.4l4-6.3C7.6,1.1,7.7,1,7.8,1l5.3-1c0.1,0,0.2,0,0.3,0.1
			s0.1,0.2,0.1,0.3l-1,5.4c0,0.1-0.1,0.2-0.2,0.2L6.2,10C6.1,10,6,10,6,10z M4.3,7.6L6,9.2l5.8-3.6l0.9-4.7L8.1,1.7L4.3,7.6z"/>
	</g>
</g>
</svg>
