<?xml version="1.0" encoding="utf-8"?>
<!-- Generator: Adobe Illustrator 27.3.1, SVG Export Plug-In . SVG Version: 6.00 Build 0)  -->
<svg version="1.1" id="Layer_1" xmlns="http://www.w3.org/2000/svg" xmlns:xlink="http://www.w3.org/1999/xlink" x="0px" y="0px"
	 viewBox="0 0 15.1 13.6" style="enable-background:new 0 0 15.1 13.6;" xml:space="preserve">
<style type="text/css">
	.st0{fill:#221F1F;}
</style>
<g>
	<path class="st0" d="M7.5,13.6l-0.2-0.1C2.6,10.4,0.2,7.5,0,4.8L0,4c0.2-2.6,2-3.9,3.6-4c2.1-0.2,3.1,0.5,4,1.4
		c0.9-0.9,1.9-1.6,4-1.4c1.6,0.1,3.4,1.4,3.6,4l0,0.8c-0.2,2.7-2.6,5.6-7.3,8.6L7.5,13.6z M4.3,0.8c-0.2,0-0.4,0-0.6,0
		C2.4,0.9,0.9,2,0.7,4.1l0,0.7c0.2,2.4,2.5,5,6.8,7.9c4.3-2.9,6.6-5.5,6.8-7.9l0-0.7c-0.2-2.1-1.6-3.1-2.9-3.3
		c-2-0.2-2.7,0.5-3.6,1.5L7.5,2.6L7.3,2.3C6.5,1.4,5.8,0.8,4.3,0.8z"/>
</g>
</svg>
